<?xml version="1.0" encoding="UTF-8"?>
<svg width="202px" height="40px" viewBox="0 0 202 40" version="1.1" xmlns="http://www.w3.org/2000/svg" xmlns:xlink="http://www.w3.org/1999/xlink">
    <!-- Generator: Sketch 47.1 (45422) - http://www.bohemiancoding.com/sketch -->
    <title>Group 22</title>
    <desc>Created with Sketch.</desc>
    <defs></defs>
    <g id="桌機版" stroke="none" stroke-width="1" fill="none" fill-rule="evenodd">
        <g id="Group-22" fill="#FFFFFF">
            <path d="M23.634,1.538 L23.634,3.254 L13.91,3.254 L13.91,5.412 L22.672,5.412 L22.672,7.102 L13.91,7.102 L13.91,9.208 L22.776,9.208 L22.776,10.846 L13.91,10.846 L13.91,12.978 L24.778,12.978 L24.778,14.694 L13.754,14.694 L13.754,22.364 C15.106,21.948 16.484,21.35 17.862,20.596 L18.174,22.286 C16.406,23.17 14.378,23.898 12.09,24.47 L11.336,22.884 C11.752,22.676 11.986,22.39 11.986,21.974 L11.986,14.694 L10.062,14.694 L10.062,12.978 L12.142,12.978 L12.142,1.538 L23.634,1.538 Z M22.88,15.734 L24.102,16.982 C23.088,18.308 21.944,19.322 20.696,20.024 C21.892,21.376 23.374,22.416 25.116,23.144 L24.102,24.626 C20.566,23.118 18.044,20.284 16.562,16.124 L17.966,15.318 C18.434,16.592 19.006,17.736 19.682,18.75 C20.8,18.074 21.866,17.06 22.88,15.734 Z M4.186,9.286 L9.178,9.286 L9.178,1.746 L1.456,1.746 L1.456,3.462 L7.41,3.462 L7.41,7.648 L2.548,7.648 L1.716,15.162 L7.28,15.162 C7.28,18.23 7.176,20.258 6.968,21.22 C6.734,22.156 5.928,22.65 4.55,22.65 C3.718,22.65 2.886,22.598 2.054,22.546 L2.522,24.262 C3.354,24.314 4.16,24.366 4.94,24.366 C7.124,24.262 8.372,23.482 8.684,22 C8.944,20.648 9.074,17.84 9.074,13.524 L3.614,13.524 L4.186,9.286 Z M48.638,13.732 L48.638,24.6 L46.792,24.6 L46.792,23.326 L39.2,23.326 L39.2,24.6 L37.328,24.6 L37.328,13.732 L48.638,13.732 Z M39.2,21.506 L46.792,21.506 L46.792,15.552 L39.2,15.552 L39.2,21.506 Z M40.682,3.54 C40.344,5.36 39.85,6.842 39.2,7.986 C38.472,9.156 37.354,10.248 35.872,11.236 L36.964,12.614 C38.68,11.47 39.954,10.196 40.812,8.74 C41.514,7.466 42.086,5.724 42.502,3.54 L47.156,3.54 C47.104,6.66 47,8.558 46.818,9.286 C46.61,10.014 46.142,10.404 45.362,10.456 C44.738,10.43 43.958,10.378 43.022,10.326 L43.49,12.016 C44.374,12.068 45.154,12.12 45.778,12.12 C46.974,12.12 47.78,11.626 48.248,10.664 C48.742,9.676 49.002,6.712 49.028,1.772 L36.6,1.772 L36.6,3.54 L40.682,3.54 Z M35.014,2.734 L35.014,21.87 L33.194,21.87 L33.194,20.024 L29.268,20.024 L29.268,22.494 L27.448,22.494 L27.448,2.734 L35.014,2.734 Z M29.268,18.256 L33.194,18.256 L33.194,12.094 L29.268,12.094 L29.268,18.256 Z M29.268,10.378 L33.194,10.378 L33.194,4.476 L29.268,4.476 L29.268,10.378 Z M57.522,1.356 L69.456,1.356 L69.456,12.224 L57.522,12.224 L57.522,1.356 Z M67.688,10.638 L67.688,8.922 L59.29,8.922 L59.29,10.638 L67.688,10.638 Z M59.29,7.622 L67.688,7.622 L67.688,5.932 L59.29,5.932 L59.29,7.622 Z M59.29,4.632 L67.688,4.632 L67.688,2.916 L59.29,2.916 L59.29,4.632 Z M51.958,17.658 L59.862,17.658 L59.862,15.526 L52.998,15.526 L52.998,3.332 L54.844,3.332 L54.844,13.81 L61.682,13.81 L61.682,24.522 L59.862,24.522 L59.862,19.348 L56.404,19.348 C56.144,21.662 55.026,23.43 53.102,24.652 L51.646,23.378 C53.31,22.468 54.298,21.116 54.61,19.348 L51.958,19.348 L51.958,17.658 Z M66.908,15.526 L66.908,17.658 L74.292,17.658 L74.292,24.548 L72.472,24.548 L72.472,19.348 L66.908,19.348 L66.908,24.548 L65.114,24.548 L65.114,13.81 L72.108,13.81 L72.108,3.072 L73.928,3.072 L73.928,15.526 L66.908,15.526 Z M100.518,17.476 L98.6719999,16.852 C98.5679999,18.906 98.3859999,20.284 98.1259999,20.96 C97.8399999,21.662 97.2419999,22.026 96.3579999,22.026 L91.3399999,22.026 C90.6119999,22 90.2219999,21.636 90.2219999,20.96 L90.2219999,12.172 L98.7239999,12.172 L98.7239999,1.824 L87.5699999,1.824 L87.5699999,3.644 L96.8779999,3.644 L96.8779999,10.352 L88.3759999,10.352 L88.3759999,21.662 C88.3759999,23.118 89.1039999,23.846 90.5859999,23.846 L96.6699999,23.846 C98.0739999,23.846 99.0099999,23.43 99.4779999,22.65 C99.9459999,21.87 100.31,20.128 100.518,17.476 Z M78.1579999,18.022 C78.0019999,20.18 77.6639999,22.078 77.1179999,23.742 L78.8339999,24.262 C79.3539999,22.52 79.6659999,20.518 79.8219999,18.23 L78.1579999,18.022 Z M82.6559999,17.736 L81.0699999,18.074 C81.3819999,19.634 81.6419999,21.428 81.8759999,23.456 L83.5399999,23.092 C83.2799999,21.168 82.9939999,19.374 82.6559999,17.736 Z M85.2039999,10.638 L83.7219999,11.106 C84.0339999,11.938 84.3199999,12.796 84.5799999,13.68 C82.9939999,14.148 81.4079999,14.512 79.8219999,14.772 C81.3819999,12.952 83.3839999,9.858 85.7759999,5.438 L84.0859999,4.788 C83.4619999,5.984 82.8639999,7.102 82.3179999,8.142 C81.2779999,8.298 80.2639999,8.454 79.2239999,8.584 C80.4719999,6.764 81.7199999,4.346 82.9679999,1.356 L81.1999999,0.68 C80.2379999,3.436 79.1199999,5.88 77.8459999,8.012 C77.6119999,8.35 77.3519999,8.584 77.0659999,8.714 L77.5339999,10.43 L81.3299999,9.858 C80.0299999,12.016 78.9379999,13.55 78.0019999,14.486 C77.7679999,14.694 77.4819999,14.876 77.1439999,15.032 L77.6379999,16.722 C80.0039999,16.436 82.4479999,15.916 84.9959999,15.162 C85.0999999,15.578 85.2039999,16.046 85.3079999,16.514 L86.8939999,16.124 C86.3739999,14.044 85.8279999,12.224 85.2039999,10.638 Z M85.5939999,17.06 L84.1119999,17.554 C84.6059999,19.062 85.0219999,20.622 85.3599999,22.286 L86.9459999,21.896 C86.5559999,20.076 86.1139999,18.464 85.5939999,17.06 Z M113.12,0.784 L114.758,0.784 C117.176,3.306 120.738,5.386 125.444,7.05 L124.404,8.61 C122.064,7.752 119.984,6.764 118.164,5.672 L118.164,6.894 L109.792,6.894 L109.792,5.568 C107.868,6.79 105.788,7.856 103.526,8.766 L102.46,7.206 C106.802,5.542 110.364,3.384 113.12,0.784 Z M110.078,5.386 L117.722,5.386 C116.266,4.45 115.018,3.462 113.952,2.422 C112.756,3.514 111.456,4.502 110.078,5.386 Z M116.838,24.158 L111.118,24.158 C109.532,24.158 108.752,23.404 108.752,21.896 L108.752,16.956 L110.65,16.956 L110.65,21.506 C110.65,22.13 110.988,22.468 111.69,22.468 L116.5,22.468 C117.306,22.468 117.878,22.312 118.216,22.052 C118.684,21.714 118.97,20.752 119.126,19.166 L120.842,19.712 C120.634,21.818 120.192,23.092 119.542,23.56 C118.97,23.95 118.06,24.158 116.838,24.158 Z M105.918,15.448 L107.712,15.838 C106.88,18.724 105.71,21.22 104.176,23.3 L102.564,22.312 C104.098,20.232 105.216,17.944 105.918,15.448 Z M114.888,16.098 C115.642,17.19 116.318,18.386 116.89,19.634 L115.174,20.388 C114.55,18.984 113.9,17.71 113.172,16.618 L114.888,16.098 Z M121.076,15.006 C122.974,17.45 124.43,19.582 125.418,21.402 L123.832,22.494 C122.818,20.518 121.414,18.308 119.646,15.916 L121.076,15.006 Z M106.958,8.87 L120.842,8.87 L120.842,10.378 C119.308,12.874 116.136,14.72 111.326,15.968 L110.65,14.356 C114.42,13.628 117.098,12.328 118.71,10.508 L106.958,10.508 L106.958,8.87 Z M128.27,2.708 L132.872,2.708 L132.872,0.732 L134.692,0.732 L134.692,2.708 L143.662,2.708 L143.662,0.732 L145.482,0.732 L145.482,2.708 L150.084,2.708 L150.084,4.294 L145.482,4.294 L145.482,12.9 L150.474,12.9 L150.474,14.564 L145.066,14.564 C146.314,16.124 148.264,17.346 150.864,18.23 L150.11,19.842 C146.886,18.49 144.598,16.722 143.246,14.564 L135.082,14.564 C133.73,16.722 131.546,18.516 128.53,19.92 L127.568,18.334 C130.142,17.346 132.04,16.098 133.288,14.564 L127.88,14.564 L127.88,12.9 L132.872,12.9 L132.872,4.294 L128.27,4.294 L128.27,2.708 Z M134.692,12.9 L143.662,12.9 L143.662,11.028 L134.692,11.028 L134.692,12.9 Z M134.692,9.546 L143.662,9.546 L143.662,7.7 L134.692,7.7 L134.692,9.546 Z M134.692,6.218 L143.662,6.218 L143.662,4.294 L134.692,4.294 L134.692,6.218 Z M138.28,15.474 L140.1,15.474 L140.1,17.554 L145.378,17.554 L145.378,19.218 L140.1,19.218 L140.1,21.974 L149.018,21.974 L149.018,23.716 L129.18,23.716 L129.18,21.974 L138.28,21.974 L138.28,19.218 L132.95,19.218 L132.95,17.554 L138.28,17.554 L138.28,15.474 Z M157.616,8.194 C156.368,8.948 155.068,9.65 153.716,10.274 L152.624,8.714 C157.148,6.686 160.84,4.112 163.7,0.966 L165.208,0.966 C167.704,4.06 171.37,6.608 176.206,8.636 L175.14,10.196 C173.762,9.624 172.488,8.974 171.292,8.272 L171.292,9.702 L165.39,9.702 L165.39,13.446 L174.646,13.446 L174.646,15.188 L165.39,15.188 L165.39,22.13 L168.276,22.13 C169.16,20.44 169.94,18.62 170.616,16.67 L172.332,17.268 C171.682,19.088 170.954,20.726 170.174,22.13 L175.556,22.13 L175.556,23.924 L153.326,23.924 L153.326,22.13 L158.708,22.13 C158.162,20.466 157.46,18.932 156.628,17.476 L158.318,16.852 C159.124,18.308 159.852,20.076 160.528,22.13 L163.518,22.13 L163.518,15.188 L154.236,15.188 L154.236,13.446 L163.518,13.446 L163.518,9.702 L157.616,9.702 L157.616,8.194 Z M170.85,8.012 C168.302,6.504 166.17,4.736 164.454,2.734 C162.504,4.762 160.32,6.53 157.902,8.012 L170.85,8.012 Z M193.748,9.884 L195.022,10.196 C194.684,11.236 194.242,12.12 193.722,12.9 L192.448,12.458 C192.916,11.782 193.358,10.924 193.748,9.884 Z M185.532,9.858 C186.052,10.638 186.494,11.548 186.884,12.588 L185.61,12.9 C185.246,11.964 184.778,11.106 184.258,10.274 L185.532,9.858 Z M180.54,8.038 L198.792,8.038 L198.792,14.668 L180.54,14.668 L180.54,8.038 Z M197.076,13.264 L197.076,9.468 L190.524,9.468 L190.524,13.264 L197.076,13.264 Z M188.808,13.264 L188.808,9.468 L182.256,9.468 L182.256,13.264 L188.808,13.264 Z M197.856,16.072 L197.856,24.652 L196.062,24.652 L196.062,23.664 L183.296,23.664 L183.296,24.678 L181.502,24.678 L181.502,16.072 L197.856,16.072 Z M183.296,22.182 L196.062,22.182 L196.062,20.492 L183.296,20.492 L183.296,22.182 Z M183.296,19.166 L196.062,19.166 L196.062,17.476 L183.296,17.476 L183.296,19.166 Z M184.492,5.62 C182.724,6.582 180.8,7.544 178.72,8.506 L177.732,6.946 C181.918,5.178 185.714,3.15 189.094,0.836 L190.238,0.836 C193.618,3.124 197.414,5.152 201.6,6.894 L200.612,8.454 C198.506,7.466 196.582,6.504 194.814,5.542 L194.814,6.634 L184.492,6.634 L184.492,5.62 Z M194.242,5.23 C192.578,4.294 191.044,3.384 189.666,2.448 C188.288,3.384 186.78,4.294 185.168,5.23 L194.242,5.23 Z" id="張昭鼎紀念基金會"></path>
            <path d="M1.89941406,33.6210938 C1.89941406,34.0996118 1.97102793,34.5276674 2.11425781,34.9052734 C2.2574877,35.2828795 2.45442583,35.6027005 2.70507812,35.8647461 C2.95573042,36.1267917 3.25276521,36.326985 3.59619141,36.465332 C3.9396176,36.6036791 4.31152144,36.6728516 4.71191406,36.6728516 C4.94954546,36.6728516 5.17903535,36.6264653 5.40039062,36.5336914 C5.6217459,36.4409175 5.82763577,36.320476 6.01806641,36.1723633 C6.20849705,36.0242506 6.37857998,35.856609 6.52832031,35.6694336 C6.67806064,35.4822582 6.80175732,35.2926442 6.89941406,35.1005859 L7.37792969,35.4082031 C7.23795503,35.6360688 7.07275486,35.8557932 6.88232422,36.0673828 C6.69189358,36.2789724 6.47135542,36.4653312 6.22070312,36.6264648 C5.97005083,36.7875985 5.68685054,36.9169917 5.37109375,37.0146484 C5.05533696,37.1123052 4.70215039,37.1611328 4.31152344,37.1611328 C3.93717261,37.1611328 3.58398604,37.1180017 3.25195313,37.0317383 C2.91992021,36.9454748 2.61474749,36.8250333 2.33642578,36.6704102 C2.05810408,36.515787 1.80908313,36.3294282 1.58935547,36.1113281 C1.36962781,35.8932281 1.18408279,35.6531589 1.03271484,35.3911133 C0.881346899,35.1290677 0.764974365,34.8483088 0.68359375,34.5488281 C0.602213135,34.2493475 0.561523438,33.9401058 0.561523438,33.6210938 C0.561523438,33.3020817 0.603026929,32.9920262 0.686035156,32.690918 C0.769043384,32.3898097 0.8878573,32.1066094 1.04248047,31.8413086 C1.19710364,31.5760078 1.38671763,31.3326834 1.61132813,31.1113281 C1.83593862,30.8899729 2.08902854,30.7003589 2.37060547,30.5424805 C2.6521824,30.3846021 2.9606103,30.2617192 3.29589844,30.1738281 C3.63118657,30.0859371 3.98925591,30.0419922 4.37011719,30.0419922 C4.73144712,30.0419922 5.06428884,30.0908198 5.36865234,30.1884766 C5.67301584,30.2861333 5.95133337,30.4155265 6.20361328,30.5766602 C6.45589319,30.7377938 6.67968652,30.9241526 6.875,31.1357422 C7.07031348,31.3473318 7.23795503,31.5670562 7.37792969,31.7949219 L6.88476563,32.1269531 C6.59830586,31.5768202 6.27929863,31.1731784 5.92773438,30.9160156 C5.57617012,30.6588529 5.17252832,30.5302734 4.71679688,30.5302734 C4.3229147,30.5302734 3.95507983,30.6018873 3.61328125,30.7451172 C3.27148267,30.8883471 2.97363408,31.0934231 2.71972656,31.3603516 C2.46581904,31.62728 2.26562573,31.95117 2.11914062,32.3320312 C1.97265552,32.7128925 1.89941406,33.1425757 1.89941406,33.6210938 Z M10.1898438,32.7128906 C10.5056006,32.3580711 10.8343733,32.0919605 11.1761719,31.9145508 C11.5179705,31.737141 11.8662743,31.6484375 12.2210938,31.6484375 C12.4033864,31.6484375 12.5750969,31.689941 12.7362305,31.7729492 C12.8973641,31.8559574 13.0373367,31.9690748 13.1561524,32.1123047 C13.2749681,32.2555346 13.3685544,32.4239899 13.4369141,32.6176758 C13.5052738,32.8113616 13.5394531,33.0172515 13.5394531,33.2353516 L13.5394531,37 L12.4994141,37 L12.4994141,33.4111328 C12.4994141,33.066079 12.4212899,32.8040374 12.2650391,32.625 C12.1087883,32.4459626 11.9069674,32.3564453 11.6595703,32.3564453 C11.5488927,32.3564453 11.4317064,32.3743488 11.3080078,32.4101562 C11.1843093,32.4459637 11.058985,32.4972327 10.9320313,32.5639648 C10.8050775,32.6306969 10.6789395,32.7104488 10.5536133,32.8032227 C10.4282872,32.8959966 10.3070319,32.9993484 10.1898438,33.1132812 L10.1898438,37 L9.14980471,37 L9.14980471,29.3681641 L9.89199221,29.0703125 L10.1898438,29.0703125 L10.1898438,32.7128906 Z M19.222461,37 L18.1775391,37 L18.1775391,36.2822266 C18.0538406,36.3766281 17.9325853,36.4726558 17.8137696,36.5703125 C17.6949539,36.6679692 17.5663744,36.7574866 17.4280274,36.8388672 C17.2896803,36.9202478 17.1366871,36.9861651 16.969043,37.0366211 C16.8013989,37.0870771 16.6069022,37.1123047 16.3855469,37.1123047 C16.1804678,37.1123047 15.9949228,37.0789391 15.8289063,37.012207 C15.6628898,36.9454749 15.5212897,36.8535162 15.4041016,36.7363281 C15.2869135,36.61914 15.1973962,36.4807951 15.1355469,36.3212891 C15.0736977,36.1617831 15.0427735,35.9892587 15.0427735,35.8037109 C15.0427735,35.5791004 15.0875322,35.3764657 15.1770508,35.1958008 C15.2665695,35.0151358 15.3886386,34.8531908 15.5432618,34.7099609 C15.6978849,34.5667311 15.8785472,34.4397792 16.085254,34.3291016 C16.2919607,34.2184239 16.5108713,34.1191411 16.7419922,34.03125 C16.9731132,33.9433589 17.2115548,33.8652347 17.4573243,33.796875 C17.7030937,33.7285153 17.9431629,33.6650394 18.1775391,33.6064453 L18.1775391,33.2792969 C18.1775391,33.0416655 18.1539391,32.8406584 18.1067383,32.6762695 C18.0595376,32.5118807 17.9919927,32.3792323 17.9041016,32.2783203 C17.8162105,32.1774083 17.7096035,32.1049807 17.5842774,32.0610352 C17.4589512,32.0170896 17.3181649,31.9951172 17.1619141,31.9951172 C16.986132,31.9951172 16.8429042,32.0179034 16.7322266,32.0634766 C16.621549,32.1090497 16.534473,32.1692705 16.4709961,32.2441406 C16.4075193,32.3190108 16.3643882,32.4044592 16.3416016,32.5004883 C16.318815,32.5965174 16.3074219,32.6933589 16.3074219,32.7910156 C16.3074219,32.8821619 16.3000978,32.9700517 16.2854493,33.0546875 C16.2708008,33.1393233 16.2439456,33.2133786 16.2048829,33.2768555 C16.1658202,33.3403323 16.1129236,33.3916014 16.0461915,33.4306641 C15.9794593,33.4697268 15.894011,33.4892578 15.7898438,33.4892578 C15.7084632,33.4892578 15.6344079,33.4737957 15.5676758,33.4428711 C15.5009437,33.4119465 15.4431644,33.3688154 15.394336,33.3134766 C15.3455076,33.2581377 15.3080731,33.1930342 15.2820313,33.1181641 C15.2559895,33.0432939 15.2429688,32.9619145 15.2429688,32.8740234 C15.2429688,32.7014965 15.2999344,32.5403653 15.4138672,32.390625 C15.5278001,32.2408847 15.6807934,32.1114914 15.8728516,32.0024414 C16.0649099,31.8933914 16.289517,31.8071292 16.5466797,31.7436523 C16.8038425,31.6801755 17.0740221,31.6484375 17.3572266,31.6484375 C17.7022804,31.6484375 17.9936187,31.6818031 18.23125,31.7485352 C18.4688814,31.8152673 18.6609368,31.9088536 18.8074219,32.0292969 C18.953907,32.1497402 19.0597002,32.2962231 19.1248047,32.46875 C19.1899092,32.6412769 19.222461,32.8317047 19.222461,33.0400391 L19.222461,37 Z M18.1775391,33.9433594 C18.0277988,33.9921877 17.8723641,34.0475257 17.7112305,34.109375 C17.5500969,34.1712243 17.3922209,34.2403968 17.2375977,34.3168945 C17.0829745,34.3933923 16.9356778,34.4763993 16.7957032,34.565918 C16.6557285,34.6554366 16.5328456,34.7506505 16.4270508,34.8515625 C16.321256,34.9524745 16.2374353,35.0598953 16.175586,35.1738281 C16.1137367,35.287761 16.0828125,35.4065749 16.0828125,35.5302734 C16.0828125,35.6572272 16.1064126,35.7784825 16.1536133,35.894043 C16.2008141,36.0096034 16.2634762,36.1105139 16.3416016,36.1967773 C16.419727,36.2830408 16.5100581,36.3513995 16.6125977,36.4018555 C16.7151373,36.4523115 16.8217443,36.4775391 16.9324219,36.4775391 C17.04961,36.4775391 17.1610998,36.462077 17.2668946,36.4311523 C17.3726894,36.4002277 17.4752274,36.3587242 17.5745118,36.3066406 C17.6737961,36.254557 17.773079,36.1935225 17.8723633,36.1235352 C17.9716477,36.0535478 18.0733719,35.9794926 18.1775391,35.9013672 L18.1775391,33.9433594 Z M22.2541016,31.7558594 L22.2541016,35.4863281 C22.2541016,35.6165371 22.284212,35.73942 22.3444337,35.8549805 C22.4046553,35.9705409 22.4868485,36.0706376 22.5910157,36.1552734 C22.6951829,36.2399093 22.817252,36.3074542 22.9572266,36.3579102 C23.0972013,36.4083661 23.2469394,36.4335938 23.4064454,36.4335938 C23.5106126,36.4335938 23.6212885,36.4116213 23.7384766,36.3676758 C23.8556647,36.3237302 23.9704097,36.2626957 24.0827149,36.1845703 C24.1950202,36.1064449 24.3008134,36.0161138 24.4000977,35.9135742 C24.4993821,35.8110346 24.5815753,35.7011725 24.6466798,35.5839844 L24.6466798,31.7558594 L25.6867188,31.7558594 L25.6867188,37 L24.6466798,37 L24.6466798,36.0185547 C24.5555335,36.168295 24.4407885,36.3098952 24.3024415,36.4433594 C24.1640944,36.5768236 24.0143563,36.6931961 23.8532227,36.7924805 C23.6920891,36.8917648 23.5260751,36.969889 23.3551759,37.0268555 C23.1842766,37.0838219 23.0223316,37.1123047 22.869336,37.1123047 C22.6414703,37.1123047 22.4266287,37.0691736 22.2248048,36.9829102 C22.0229808,36.8966467 21.8472013,36.7802742 21.697461,36.6337891 C21.5477207,36.487304 21.4297206,36.3155934 21.3434571,36.1186523 C21.2571937,35.9217113 21.2140626,35.7109386 21.2140626,35.4863281 L21.2140626,31.7558594 L22.2541016,31.7558594 Z M29.6460938,34.2509766 L29.6460938,34.8515625 L27.1460938,34.8515625 L27.1460938,34.2509766 L29.6460938,34.2509766 Z M33.8984376,36.3310547 C33.758463,36.5719413 33.5729179,36.7623691 33.341797,36.9023438 C33.110676,37.0423184 32.8258482,37.1123047 32.4873048,37.1123047 C32.3115227,37.1123047 32.1593432,37.0830081 32.0307618,37.0244141 C31.9021805,36.96582 31.7955735,36.882813 31.7109376,36.7753906 C31.6263018,36.6679682 31.5636396,36.5393888 31.5229493,36.3896484 C31.482259,36.2399081 31.4619142,36.0738941 31.4619142,35.8916016 L31.4619142,32.1953125 L30.5537111,32.1953125 L30.5537111,31.9365234 C30.8466813,31.9365234 31.0875643,31.8836268 31.2763673,31.777832 C31.4651703,31.6720372 31.6197912,31.5288095 31.7402345,31.3481445 C31.8606778,31.1674796 31.9550779,30.9583345 32.0234376,30.7207031 C32.0917973,30.4830717 32.1520181,30.2307956 32.2041017,29.9638672 L32.5019532,29.9638672 L32.5019532,31.7558594 L33.6787111,31.7558594 L33.6787111,32.1953125 L32.5019532,32.1953125 L32.5019532,35.8916016 C32.5019532,35.969727 32.5166015,36.0429684 32.5458986,36.1113281 C32.5751956,36.1796878 32.6150715,36.2390948 32.6655275,36.2895508 C32.7159834,36.3400068 32.7762042,36.3798827 32.8461915,36.4091797 C32.9161789,36.4384767 32.9902341,36.453125 33.0683595,36.453125 C33.1855476,36.453125 33.2921546,36.4246422 33.3881837,36.3676758 C33.4842128,36.3107094 33.5680336,36.2399093 33.6396486,36.1552734 L33.8984376,36.3310547 Z M35.6849611,29.0703125 C35.7663417,29.0703125 35.8436521,29.084147 35.9168947,29.1118164 C35.9901372,29.1394858 36.0536132,29.1769203 36.1073244,29.2241211 C36.1610356,29.2713219 36.2041666,29.3266598 36.2367189,29.3901367 C36.2692711,29.4536136 36.285547,29.5211585 36.285547,29.5927734 C36.285547,29.6643884 36.2692711,29.7319333 36.2367189,29.7954102 C36.2041666,29.858887 36.1610356,29.914225 36.1073244,29.9614258 C36.0536132,30.0086265 35.9901372,30.0460611 35.9168947,30.0737305 C35.8436521,30.1013999 35.7663417,30.1152344 35.6849611,30.1152344 C35.6035805,30.1152344 35.5270838,30.1013999 35.4554689,30.0737305 C35.383854,30.0460611 35.3211918,30.0086265 35.2674806,29.9614258 C35.2137694,29.914225 35.1706383,29.858887 35.1380861,29.7954102 C35.1055338,29.7319333 35.089258,29.6643884 35.089258,29.5927734 C35.089258,29.5211585 35.1055338,29.4536136 35.1380861,29.3901367 C35.1706383,29.3266598 35.2137694,29.2713219 35.2674806,29.2241211 C35.3211918,29.1769203 35.383854,29.1394858 35.4554689,29.1118164 C35.5270838,29.084147 35.6035805,29.0703125 35.6849611,29.0703125 Z M35.1771486,31.9462891 L35.9095705,31.6484375 L36.2123048,31.6484375 L36.2123048,37 L35.1771486,37 L35.1771486,31.9462891 Z M38.0818361,31.7558594 L39.1218752,31.7558594 L39.1218752,32.7128906 C39.437632,32.3580711 39.7664047,32.0919605 40.1082033,31.9145508 C40.4500019,31.737141 40.7983057,31.6484375 41.1531252,31.6484375 C41.3354177,31.6484375 41.5071283,31.689941 41.6682619,31.7729492 C41.8293955,31.8559574 41.9693681,31.9690748 42.0881838,32.1123047 C42.2069995,32.2555346 42.3013996,32.4239899 42.3713869,32.6176758 C42.4413742,32.8113616 42.4763674,33.0172515 42.4763674,33.2353516 L42.4763674,37 L41.4314455,37 L41.4314455,33.4111328 C41.4314455,33.066079 41.3533213,32.8040374 41.1970705,32.625 C41.0408197,32.4459626 40.8406264,32.3564453 40.5964845,32.3564453 C40.4858069,32.3564453 40.3686206,32.3743488 40.244922,32.4101562 C40.1212235,32.4459637 39.9958992,32.4972327 39.8689455,32.5639648 C39.7419917,32.6306969 39.6150399,32.7104488 39.4880861,32.8032227 C39.3611323,32.8959966 39.2390633,32.9993484 39.1218752,33.1132812 L39.1218752,37 L38.0818361,37 L38.0818361,31.7558594 Z M49.4777346,32.0292969 L49.4777346,32.4638672 L48.4816408,32.4638672 C48.585808,32.6070971 48.668815,32.7674145 48.7306643,32.9448242 C48.7925135,33.122234 48.8234377,33.2988272 48.8234377,33.4746094 C48.8234377,33.7480482 48.7632169,33.9962554 48.6427736,34.2192383 C48.5223303,34.4422212 48.3546888,34.6342765 48.1398439,34.7954102 C47.9249991,34.9565438 47.668654,35.0810542 47.370801,35.1689453 C47.0729479,35.2568364 46.744989,35.3007812 46.3869143,35.3007812 C46.2567053,35.3007812 46.1224293,35.2893881 45.9840822,35.2666016 C45.8457352,35.243815 45.7261075,35.216146 45.6251955,35.1835938 C45.5242835,35.2649744 45.439649,35.3593745 45.3712893,35.4667969 C45.3029295,35.5742193 45.2687502,35.6832677 45.2687502,35.7939453 C45.2687502,35.8981125 45.3265296,35.9827471 45.44209,36.0478516 C45.5576505,36.1129561 45.7195955,36.148763 45.9279299,36.1552734 L47.8712893,36.2382812 C48.1805356,36.2513021 48.4385083,36.2879229 48.645215,36.3481445 C48.8519218,36.4083662 49.017122,36.488118 49.1408205,36.5874023 C49.264519,36.6866867 49.351595,36.8063144 49.402051,36.9462891 C49.452507,37.0862637 49.4777346,37.2408846 49.4777346,37.4101562 C49.4777346,37.7161474 49.4069345,37.9928373 49.2653322,38.2402344 C49.12373,38.4876314 48.9186539,38.6984041 48.6500978,38.8725586 C48.3815418,39.0467131 48.0552104,39.1809891 47.6710939,39.2753906 C47.2869774,39.3697921 46.8524115,39.4169922 46.367383,39.4169922 C45.5014933,39.4169922 44.8545271,39.3193369 44.426465,39.1240234 C43.998403,38.92871 43.7843752,38.6699235 43.7843752,38.3476562 C43.7843752,38.2044264 43.8201821,38.0660814 43.8917971,37.9326172 C43.963412,37.799153 44.0553707,37.6713873 44.167676,37.5493164 C44.2799812,37.4272455 44.4044917,37.3100592 44.5412111,37.1977539 C44.6779306,37.0854487 44.8130204,36.9772141 44.9464846,36.8730469 C44.8488278,36.8437499 44.7584967,36.8079429 44.6754885,36.765625 C44.5924802,36.7233071 44.5208664,36.6752932 44.4606447,36.621582 C44.4004231,36.5678708 44.3524092,36.5092777 44.3166018,36.4458008 C44.2807943,36.3823239 44.2628908,36.3131514 44.2628908,36.2382812 C44.2628908,36.1308588 44.2905598,36.0209967 44.3458986,35.9086914 C44.4012374,35.7963862 44.4777341,35.6881516 44.5753908,35.5839844 C44.6730476,35.4798172 44.7861649,35.3846033 44.9147463,35.2983398 C45.0433277,35.2120764 45.1808588,35.1412763 45.3273439,35.0859375 C44.9725245,34.9361972 44.6958345,34.7270521 44.4972658,34.4584961 C44.2986971,34.1899401 44.1994143,33.8815122 44.1994143,33.5332031 C44.1994143,33.2760404 44.2588212,33.032716 44.3776369,32.8032227 C44.4964526,32.5737293 44.6592114,32.373536 44.8659182,32.2026367 C45.0726249,32.0317374 45.3167631,31.8966476 45.59834,31.7973633 C45.879917,31.6980789 46.1818345,31.6484375 46.5041018,31.6484375 C46.6603525,31.6484375 46.8149734,31.6590168 46.9679689,31.6801758 C47.1209645,31.7013347 47.2633784,31.7290037 47.395215,31.7631836 C47.5270516,31.7973635 47.644238,31.8372394 47.7467775,31.8828125 C47.8493171,31.9283856 47.9282551,31.9772133 47.9835939,32.0292969 L49.4777346,32.0292969 Z M45.2687502,36.9560547 C45.1906248,37.0146487 45.1222661,37.0797522 45.0636721,37.1513672 C45.005078,37.2229821 44.9554366,37.298665 44.9147463,37.378418 C44.874056,37.458171 44.8431318,37.5379228 44.8219728,37.6176758 C44.8008139,37.6974288 44.7902346,37.7731116 44.7902346,37.8447266 C44.7902346,37.9619146 44.8317381,38.0742182 44.9147463,38.1816406 C44.9977545,38.289063 45.1214512,38.3834631 45.28584,38.4648438 C45.4502289,38.5462244 45.6561187,38.6113279 45.9035158,38.6601562 C46.1509129,38.7089846 46.4389959,38.7333984 46.7677736,38.7333984 C47.1160827,38.7333984 47.4285795,38.7057294 47.7052736,38.6503906 C47.9819677,38.5950518 48.2163404,38.5218104 48.4083986,38.4306641 C48.6004569,38.3395178 48.7469398,38.2377935 48.8478518,38.1254883 C48.9487637,38.013183 48.9992189,37.9000657 48.9992189,37.7861328 C48.9992189,37.5517566 48.8828464,37.3808599 48.6500978,37.2734375 C48.4173493,37.1660151 48.0991559,37.1123047 47.695508,37.1123047 C47.4448557,37.1123047 47.190952,37.1066081 46.9337893,37.0952148 C46.6766265,37.0838216 46.4365573,37.0699871 46.2135744,37.0537109 C45.9905915,37.0374348 45.795281,37.0203451 45.6276369,37.0024414 C45.4599928,36.9845377 45.3403651,36.9690756 45.2687502,36.9560547 Z M46.5675783,35.0273438 C46.7140634,35.0273438 46.8556636,34.9939782 46.992383,34.9272461 C47.1291024,34.860514 47.2495439,34.7685553 47.3537111,34.6513672 C47.4578783,34.5341791 47.5408853,34.3974617 47.6027346,34.2412109 C47.6645838,34.0849602 47.695508,33.9173186 47.695508,33.7382812 C47.695508,33.4811185 47.6605149,33.2426769 47.5905275,33.0229492 C47.5205402,32.8032216 47.4253263,32.61198 47.304883,32.4492188 C47.1844397,32.2864575 47.0444671,32.1586919 46.8849611,32.065918 C46.7254551,31.9731441 46.556186,31.9267578 46.3771486,31.9267578 C46.2013665,31.9267578 46.049187,31.9633785 45.9206057,32.0366211 C45.7920243,32.1098636 45.6862311,32.2099603 45.6032228,32.3369141 C45.5202146,32.4638678 45.4591801,32.6136059 45.4201174,32.7861328 C45.3810547,32.9586597 45.3615236,33.1442047 45.3615236,33.3427734 C45.3615236,33.5804048 45.3908202,33.8017568 45.4494143,34.0068359 C45.5080083,34.2119151 45.5902015,34.390136 45.6959963,34.5415039 C45.8017911,34.6928719 45.9287429,34.8116858 46.0768557,34.8979492 C46.2249684,34.9842127 46.388541,35.0273438 46.5675783,35.0273438 Z M56.8105471,37.1123047 C56.4687485,37.1123047 56.1472999,37.0447598 55.8461916,36.909668 C55.5450834,36.7745761 55.2830417,36.5898449 55.0600588,36.3554688 C54.8370759,36.1210926 54.6612965,35.8460302 54.5327151,35.5302734 C54.4041337,35.2145167 54.339844,34.877606 54.339844,34.5195312 C54.339844,34.1223938 54.4106441,33.7496762 54.5522463,33.4013672 C54.6938486,33.0530582 54.8883454,32.7486992 55.1357424,32.4882812 C55.3831395,32.2278633 55.6712226,32.0227872 56.0000002,31.8730469 C56.3287779,31.7233065 56.6819645,31.6484375 57.0595706,31.6484375 C57.3525408,31.6484375 57.6227204,31.6801755 57.8701174,31.7436523 C58.1175145,31.8071292 58.3307285,31.895019 58.5097659,32.0073242 C58.6888032,32.1196295 58.8287758,32.2522779 58.9296877,32.4052734 C59.0305997,32.558269 59.0810549,32.7226554 59.0810549,32.8984375 C59.0810549,32.9765629 59.0607101,33.0506181 59.0200198,33.1206055 C58.9793295,33.1905928 58.9264329,33.2516273 58.8613284,33.3037109 C58.7962239,33.3557945 58.7221686,33.397298 58.6391604,33.4282227 C58.5561522,33.4591473 58.4723314,33.4746094 58.3876956,33.4746094 C58.293294,33.4746094 58.2086595,33.4575197 58.1337893,33.4233398 C58.0589191,33.38916 57.9946294,33.3452151 57.9409182,33.2915039 C57.887207,33.2377927 57.8465173,33.1767582 57.8188479,33.1083984 C57.7911785,33.0400387 57.777344,32.9700524 57.777344,32.8984375 C57.777344,32.7779942 57.7643233,32.6648768 57.7382815,32.559082 C57.7122397,32.4532872 57.6666672,32.3621423 57.6015627,32.2856445 C57.5364582,32.2091468 57.4469409,32.148926 57.3330081,32.1049805 C57.2190752,32.0610349 57.0742199,32.0390625 56.8984377,32.0390625 C56.6608063,32.0390625 56.4475923,32.0870763 56.2587893,32.1831055 C56.0699863,32.2791346 55.9104827,32.4085278 55.7802737,32.5712891 C55.6500647,32.7340503 55.5507818,32.9252919 55.4824221,33.1450195 C55.4140624,33.3647472 55.3798831,33.5983061 55.3798831,33.8457031 C55.3798831,34.1809913 55.4238279,34.4983709 55.511719,34.7978516 C55.5996101,35.0973322 55.7233067,35.3593739 55.8828127,35.5839844 C56.0423187,35.8085949 56.2343741,35.9868157 56.4589846,36.1186523 C56.6835951,36.2504889 56.9342436,36.3164062 57.2109377,36.3164062 C57.4550796,36.3164062 57.666666,36.2781579 57.8457034,36.2016602 C58.0247407,36.1251624 58.1801754,36.0218105 58.312012,35.8916016 C58.4438486,35.7613926 58.5569659,35.6100269 58.6513674,35.4375 C58.7457689,35.2649731 58.8304035,35.0826833 58.9052737,34.890625 L59.2177737,35.0175781 C59.1298826,35.3463558 59.0110687,35.6409492 58.8613284,35.9013672 C58.711588,36.1617852 58.5349947,36.3815095 58.3315432,36.5605469 C58.1280917,36.7395842 57.8986018,36.8763016 57.6430666,36.9707031 C57.3875315,37.0651046 57.1100278,37.1123047 56.8105471,37.1123047 Z M61.8343753,32.7128906 C62.150132,32.3580711 62.4789048,32.0919605 62.8207034,31.9145508 C63.162502,31.737141 63.5108058,31.6484375 63.8656253,31.6484375 C64.0479178,31.6484375 64.2196284,31.689941 64.380762,31.7729492 C64.5418956,31.8559574 64.6818682,31.9690748 64.8006839,32.1123047 C64.9194996,32.2555346 65.0130859,32.4239899 65.0814456,32.6176758 C65.1498053,32.8113616 65.1839846,33.0172515 65.1839846,33.2353516 L65.1839846,37 L64.1439456,37 L64.1439456,33.4111328 C64.1439456,33.066079 64.0658214,32.8040374 63.9095706,32.625 C63.7533198,32.4459626 63.5514989,32.3564453 63.3041018,32.3564453 C63.1934242,32.3564453 63.0762379,32.3743488 62.9525393,32.4101562 C62.8288408,32.4459637 62.7035165,32.4972327 62.5765628,32.5639648 C62.449609,32.6306969 62.3234709,32.7104488 62.1981448,32.8032227 C62.0728186,32.8959966 61.9515633,32.9993484 61.8343753,33.1132812 L61.8343753,37 L60.7943362,37 L60.7943362,29.3681641 L61.5365237,29.0703125 L61.8343753,29.0703125 L61.8343753,32.7128906 Z M70.8669925,37 L69.8220706,37 L69.8220706,36.2822266 C69.6983721,36.3766281 69.5771168,36.4726558 69.4583011,36.5703125 C69.3394854,36.6679692 69.2109059,36.7574866 69.0725589,36.8388672 C68.9342118,36.9202478 68.7812186,36.9861651 68.6135745,37.0366211 C68.4459304,37.0870771 68.2514337,37.1123047 68.0300784,37.1123047 C67.8249993,37.1123047 67.6394542,37.0789391 67.4734378,37.012207 C67.3074213,36.9454749 67.1658212,36.8535162 67.0486331,36.7363281 C66.931445,36.61914 66.8419277,36.4807951 66.7800784,36.3212891 C66.7182291,36.1617831 66.687305,35.9892587 66.687305,35.8037109 C66.687305,35.5791004 66.7320636,35.3764657 66.8215823,35.1958008 C66.911101,35.0151358 67.0331701,34.8531908 67.1877933,34.7099609 C67.3424164,34.5667311 67.5230787,34.4397792 67.7297854,34.3291016 C67.9364922,34.2184239 68.1554028,34.1191411 68.3865237,34.03125 C68.6176447,33.9433589 68.8560863,33.8652347 69.1018558,33.796875 C69.3476252,33.7285153 69.5876944,33.6650394 69.8220706,33.6064453 L69.8220706,33.2792969 C69.8220706,33.0416655 69.7984706,32.8406584 69.7512698,32.6762695 C69.7040691,32.5118807 69.6365242,32.3792323 69.5486331,32.2783203 C69.460742,32.1774083 69.354135,32.1049807 69.2288089,32.0610352 C69.1034827,32.0170896 68.9626964,31.9951172 68.8064456,31.9951172 C68.6306635,31.9951172 68.4874357,32.0179034 68.3767581,32.0634766 C68.2660805,32.1090497 68.1790045,32.1692705 68.1155276,32.2441406 C68.0520507,32.3190108 68.0089197,32.4044592 67.9861331,32.5004883 C67.9633465,32.5965174 67.9519534,32.6933589 67.9519534,32.7910156 C67.9519534,32.8821619 67.9446293,32.9700517 67.9299808,33.0546875 C67.9153322,33.1393233 67.888477,33.2133786 67.8494143,33.2768555 C67.8103517,33.3403323 67.757455,33.3916014 67.6907229,33.4306641 C67.6239908,33.4697268 67.5385425,33.4892578 67.4343753,33.4892578 C67.3529947,33.4892578 67.2789394,33.4737957 67.2122073,33.4428711 C67.1454752,33.4119465 67.0876958,33.3688154 67.0388675,33.3134766 C66.9900391,33.2581377 66.9526046,33.1930342 66.9265628,33.1181641 C66.900521,33.0432939 66.8875003,32.9619145 66.8875003,32.8740234 C66.8875003,32.7014965 66.9444659,32.5403653 67.0583987,32.390625 C67.1723316,32.2408847 67.3253248,32.1114914 67.5173831,32.0024414 C67.7094414,31.8933914 67.9340485,31.8071292 68.1912112,31.7436523 C68.448374,31.6801755 68.7185536,31.6484375 69.0017581,31.6484375 C69.3468119,31.6484375 69.6381501,31.6818031 69.8757815,31.7485352 C70.1134129,31.8152673 70.3054683,31.9088536 70.4519534,32.0292969 C70.5984385,32.1497402 70.7042317,32.2962231 70.7693362,32.46875 C70.8344407,32.6412769 70.8669925,32.8317047 70.8669925,33.0400391 L70.8669925,37 Z M69.8220706,33.9433594 C69.6723303,33.9921877 69.5168956,34.0475257 69.355762,34.109375 C69.1946284,34.1712243 69.0367524,34.2403968 68.8821292,34.3168945 C68.727506,34.3933923 68.5802093,34.4763993 68.4402347,34.565918 C68.30026,34.6554366 68.1773771,34.7506505 68.0715823,34.8515625 C67.9657875,34.9524745 67.8819667,35.0598953 67.8201175,35.1738281 C67.7582682,35.287761 67.727344,35.4065749 67.727344,35.5302734 C67.727344,35.6572272 67.7509441,35.7784825 67.7981448,35.894043 C67.8453456,36.0096034 67.9080077,36.1105139 67.9861331,36.1967773 C68.0642585,36.2830408 68.1545896,36.3513995 68.2571292,36.4018555 C68.3596688,36.4523115 68.4662758,36.4775391 68.5769534,36.4775391 C68.6941415,36.4775391 68.8056313,36.462077 68.9114261,36.4311523 C69.0172209,36.4002277 69.1197589,36.3587242 69.2190433,36.3066406 C69.3183276,36.254557 69.4176105,36.1935225 69.5168948,36.1235352 C69.6161792,36.0535478 69.7179034,35.9794926 69.8220706,35.9013672 L69.8220706,33.9433594 Z M72.8585941,31.7558594 L73.8986331,31.7558594 L73.8986331,32.7128906 C74.2143899,32.3580711 74.5431627,32.0919605 74.8849612,31.9145508 C75.2267598,31.737141 75.5750636,31.6484375 75.9298831,31.6484375 C76.1121757,31.6484375 76.2838862,31.689941 76.4450198,31.7729492 C76.6061535,31.8559574 76.746126,31.9690748 76.8649417,32.1123047 C76.9837574,32.2555346 77.0781575,32.4239899 77.1481448,32.6176758 C77.2181322,32.8113616 77.2531253,33.0172515 77.2531253,33.2353516 L77.2531253,37 L76.2082034,37 L76.2082034,33.4111328 C76.2082034,33.066079 76.1300792,32.8040374 75.9738284,32.625 C75.8175777,32.4459626 75.6173843,32.3564453 75.3732425,32.3564453 C75.2625649,32.3564453 75.1453785,32.3743488 75.02168,32.4101562 C74.8979815,32.4459637 74.7726572,32.4972327 74.6457034,32.5639648 C74.5187497,32.6306969 74.3917978,32.7104488 74.2648441,32.8032227 C74.1378903,32.8959966 74.0158212,32.9993484 73.8986331,33.1132812 L73.8986331,37 L72.8585941,37 L72.8585941,31.7558594 Z M84.2544925,32.0292969 L84.2544925,32.4638672 L83.2583988,32.4638672 C83.362566,32.6070971 83.4455729,32.7674145 83.5074222,32.9448242 C83.5692715,33.122234 83.6001956,33.2988272 83.6001956,33.4746094 C83.6001956,33.7480482 83.5399749,33.9962554 83.4195316,34.2192383 C83.2990883,34.4422212 83.1314467,34.6342765 82.9166019,34.7954102 C82.7017571,34.9565438 82.445412,35.0810542 82.1475589,35.1689453 C81.8497059,35.2568364 81.5217469,35.3007812 81.1636722,35.3007812 C81.0334632,35.3007812 80.8991872,35.2893881 80.7608402,35.2666016 C80.6224931,35.243815 80.5028654,35.216146 80.4019535,35.1835938 C80.3010415,35.2649744 80.2164069,35.3593745 80.1480472,35.4667969 C80.0796875,35.5742193 80.0455081,35.6832677 80.0455081,35.7939453 C80.0455081,35.8981125 80.1032875,35.9827471 80.218848,36.0478516 C80.3344085,36.1129561 80.4963535,36.148763 80.7046878,36.1552734 L82.6480472,36.2382812 C82.9572935,36.2513021 83.2152662,36.2879229 83.421973,36.3481445 C83.6286798,36.4083662 83.7938799,36.488118 83.9175785,36.5874023 C84.041277,36.6866867 84.1283529,36.8063144 84.1788089,36.9462891 C84.2292649,37.0862637 84.2544925,37.2408846 84.2544925,37.4101562 C84.2544925,37.7161474 84.1836924,37.9928373 84.0420902,38.2402344 C83.9004879,38.4876314 83.6954118,38.6984041 83.4268558,38.8725586 C83.1582998,39.0467131 82.8319684,39.1809891 82.4478519,39.2753906 C82.0637354,39.3697921 81.6291694,39.4169922 81.144141,39.4169922 C80.2782512,39.4169922 79.631285,39.3193369 79.203223,39.1240234 C78.775161,38.92871 78.5611331,38.6699235 78.5611331,38.3476562 C78.5611331,38.2044264 78.5969401,38.0660814 78.668555,37.9326172 C78.74017,37.799153 78.8321287,37.6713873 78.9444339,37.5493164 C79.0567392,37.4272455 79.1812497,37.3100592 79.3179691,37.1977539 C79.4546885,37.0854487 79.5897783,36.9772141 79.7232425,36.8730469 C79.6255858,36.8437499 79.5352547,36.8079429 79.4522464,36.765625 C79.3692382,36.7233071 79.2976243,36.6752932 79.2374027,36.621582 C79.177181,36.5678708 79.1291672,36.5092777 79.0933597,36.4458008 C79.0575522,36.3823239 79.0396488,36.3131514 79.0396488,36.2382812 C79.0396488,36.1308588 79.0673178,36.0209967 79.1226566,35.9086914 C79.1779954,35.7963862 79.254492,35.6881516 79.3521488,35.5839844 C79.4498055,35.4798172 79.5629229,35.3846033 79.6915042,35.2983398 C79.8200856,35.2120764 79.9576168,35.1412763 80.1041019,35.0859375 C79.7492824,34.9361972 79.4725925,34.7270521 79.2740238,34.4584961 C79.0754551,34.1899401 78.9761722,33.8815122 78.9761722,33.5332031 C78.9761722,33.2760404 79.0355792,33.032716 79.1543949,32.8032227 C79.2732106,32.5737293 79.4359694,32.373536 79.6426761,32.2026367 C79.8493829,32.0317374 80.0935211,31.8966476 80.375098,31.7973633 C80.6566749,31.6980789 80.9585925,31.6484375 81.2808597,31.6484375 C81.4371105,31.6484375 81.5917313,31.6590168 81.7447269,31.6801758 C81.8977225,31.7013347 82.0401364,31.7290037 82.171973,31.7631836 C82.3038096,31.7973635 82.4209959,31.8372394 82.5235355,31.8828125 C82.6260751,31.9283856 82.7050131,31.9772133 82.7603519,32.0292969 L84.2544925,32.0292969 Z M80.0455081,36.9560547 C79.9673828,37.0146487 79.8990241,37.0797522 79.84043,37.1513672 C79.781836,37.2229821 79.7321945,37.298665 79.6915042,37.378418 C79.6508139,37.458171 79.6198898,37.5379228 79.5987308,37.6176758 C79.5775718,37.6974288 79.5669925,37.7731116 79.5669925,37.8447266 C79.5669925,37.9619146 79.608496,38.0742182 79.6915042,38.1816406 C79.7745125,38.289063 79.8982091,38.3834631 80.062598,38.4648438 C80.2269868,38.5462244 80.4328767,38.6113279 80.6802738,38.6601562 C80.9276708,38.7089846 81.2157539,38.7333984 81.5445316,38.7333984 C81.8928406,38.7333984 82.2053375,38.7057294 82.4820316,38.6503906 C82.7587257,38.5950518 82.9930983,38.5218104 83.1851566,38.4306641 C83.3772148,38.3395178 83.5236977,38.2377935 83.6246097,38.1254883 C83.7255217,38.013183 83.7759769,37.9000657 83.7759769,37.7861328 C83.7759769,37.5517566 83.6596044,37.3808599 83.4268558,37.2734375 C83.1941072,37.1660151 82.8759138,37.1123047 82.472266,37.1123047 C82.2216137,37.1123047 81.96771,37.1066081 81.7105472,37.0952148 C81.4533845,37.0838216 81.2133153,37.0699871 80.9903324,37.0537109 C80.7673495,37.0374348 80.5720389,37.0203451 80.4043949,37.0024414 C80.2367508,36.9845377 80.1171231,36.9690756 80.0455081,36.9560547 Z M81.3443363,35.0273438 C81.4908214,35.0273438 81.6324215,34.9939782 81.769141,34.9272461 C81.9058604,34.860514 82.0263019,34.7685553 82.1304691,34.6513672 C82.2346363,34.5341791 82.3176433,34.3974617 82.3794925,34.2412109 C82.4413418,34.0849602 82.472266,33.9173186 82.472266,33.7382812 C82.472266,33.4811185 82.4372728,33.2426769 82.3672855,33.0229492 C82.2972982,32.8032216 82.2020843,32.61198 82.081641,32.4492188 C81.9611976,32.2864575 81.8212251,32.1586919 81.6617191,32.065918 C81.5022131,31.9731441 81.3329439,31.9267578 81.1539066,31.9267578 C80.9781245,31.9267578 80.825945,31.9633785 80.6973636,32.0366211 C80.5687822,32.1098636 80.462989,32.2099603 80.3799808,32.3369141 C80.2969726,32.4638678 80.235938,32.6136059 80.1968753,32.7861328 C80.1578126,32.9586597 80.1382816,33.1442047 80.1382816,33.3427734 C80.1382816,33.5804048 80.1675782,33.8017568 80.2261722,34.0068359 C80.2847663,34.2119151 80.3669594,34.390136 80.4727542,34.5415039 C80.578549,34.6928719 80.7055009,34.8116858 80.8536136,34.8979492 C81.0017263,34.9842127 81.1652989,35.0273438 81.3443363,35.0273438 Z M89.3607426,31.7558594 L90.4007816,31.7558594 L90.4007816,32.7373047 C90.5342458,32.5908196 90.6847977,32.4524746 90.8524418,32.3222656 C91.0200859,32.1920566 91.1926102,32.0764979 91.3700199,31.9755859 C91.5474297,31.874674 91.7256505,31.7949222 91.9046879,31.7363281 C92.0837252,31.6777341 92.2529944,31.6484375 92.4125004,31.6484375 C92.5687512,31.6484375 92.7258134,31.6761065 92.8836918,31.7314453 C93.0415702,31.7867841 93.1880531,31.8640946 93.3231449,31.9633789 C93.4582367,32.0626633 93.5746093,32.1798496 93.672266,32.3149414 C93.7699227,32.4500332 93.8333987,32.5973299 93.8626957,32.7568359 C93.9505868,32.6038404 94.0702145,32.4597989 94.2215824,32.324707 C94.3729504,32.1896152 94.5414057,32.0724289 94.7269535,31.9731445 C94.9125013,31.8738602 95.1078119,31.7949222 95.312891,31.7363281 C95.5179702,31.6777341 95.7197911,31.6484375 95.9183598,31.6484375 C96.1169285,31.6484375 96.3032873,31.6923824 96.4774418,31.7802734 C96.6515963,31.8681645 96.8037758,31.9861646 96.9339848,32.1342773 C97.0641937,32.2823901 97.1667318,32.456542 97.2416019,32.6567383 C97.3164721,32.8569346 97.3539066,33.0693348 97.3539066,33.2939453 L97.3539066,37 L96.3089848,37 L96.3089848,33.4453125 C96.3089848,33.2988274 96.2837571,33.1596686 96.2333012,33.027832 C96.1828452,32.8959954 96.1153003,32.7804367 96.0306644,32.6811523 C95.9460286,32.581868 95.8467457,32.50293 95.7328129,32.4443359 C95.61888,32.3857419 95.4984385,32.3564453 95.3714848,32.3564453 C95.2282549,32.3564453 95.0825858,32.3759764 94.934473,32.4150391 C94.7863603,32.4541018 94.645574,32.5078122 94.5121098,32.5761719 C94.3786455,32.6445316 94.2565765,32.7242834 94.1458988,32.8154297 C94.0352212,32.906576 93.9473314,33.0026037 93.8822269,33.1035156 L93.8822269,37 L92.8421879,37 L92.8421879,33.4453125 C92.8421879,33.2988274 92.8169603,33.1596686 92.7665043,33.027832 C92.7160483,32.8959954 92.6468758,32.7804367 92.5589848,32.6811523 C92.4710937,32.581868 92.3701832,32.50293 92.2562504,32.4443359 C92.1423175,32.3857419 92.021876,32.3564453 91.8949223,32.3564453 C91.761458,32.3564453 91.6239269,32.3767902 91.4823246,32.4174805 C91.3407223,32.4581708 91.2023774,32.512695 91.0672855,32.5810547 C90.9321937,32.6494144 90.8068694,32.7283524 90.691309,32.8178711 C90.5757485,32.9073898 90.478907,33.0026037 90.4007816,33.1035156 L90.4007816,37 L89.3607426,37 L89.3607426,31.7558594 Z M101.474414,37.1123047 C101.119595,37.1123047 100.786753,37.0455736 100.475879,36.9121094 C100.165005,36.7786452 99.8931982,36.5971691 99.6604496,36.3676758 C99.4277011,36.1381824 99.2437836,35.8696304 99.1086918,35.5620117 C98.9736,35.254393 98.9060551,34.9248064 98.9060551,34.5732422 C98.9060551,34.1533182 98.9679034,33.7643247 99.091602,33.40625 C99.2153005,33.0481753 99.3894524,32.7389336 99.6140629,32.4785156 C99.8386734,32.2180977 100.109667,32.0146492 100.427051,31.8681641 C100.744436,31.721679 101.096808,31.6484375 101.48418,31.6484375 C101.829234,31.6484375 102.144986,31.7086583 102.431446,31.8291016 C102.717905,31.9495449 102.963671,32.1114899 103.16875,32.3149414 C103.37383,32.5183929 103.533333,32.7535794 103.647266,33.0205078 C103.761199,33.2874362 103.818164,33.5673813 103.818164,33.8603516 L99.9070317,33.8603516 C99.9070317,34.2119158 99.9526041,34.5382472 100.04375,34.8393555 C100.134897,35.1404637 100.261849,35.400064 100.42461,35.6181641 C100.587371,35.8362641 100.782682,36.0071608 101.010547,36.1308594 C101.238413,36.2545579 101.487434,36.3164062 101.757618,36.3164062 C101.985483,36.3164062 102.20358,36.2797855 102.411914,36.206543 C102.620249,36.1333004 102.809049,36.0372727 102.978321,35.918457 C103.147592,35.7996413 103.291634,35.662924 103.41045,35.5083008 C103.529265,35.3536776 103.613086,35.1949878 103.661914,35.0322266 L103.959766,35.1640625 C103.884896,35.4342461 103.763641,35.6873361 103.595996,35.9233398 C103.428352,36.1593436 103.233042,36.3652335 103.010059,36.5410156 C102.787076,36.7167978 102.542938,36.8559565 102.277637,36.9584961 C102.012336,37.0610357 101.744598,37.1123047 101.474414,37.1123047 Z M102.514454,33.4404297 C102.514454,33.241861 102.47946,33.0571298 102.409473,32.8862305 C102.339486,32.7153312 102.243458,32.5672207 102.121387,32.4418945 C101.999316,32.3165684 101.856088,32.2180993 101.6917,32.1464844 C101.527311,32.0748694 101.350717,32.0390625 101.161914,32.0390625 C101.005664,32.0390625 100.855112,32.0748694 100.710254,32.1464844 C100.565397,32.2180993 100.436817,32.3157546 100.324512,32.4394531 C100.212207,32.5631517 100.119434,32.7104484 100.046192,32.8813477 C99.9729493,33.0522469 99.9281906,33.2369782 99.9119145,33.4355469 L102.514454,33.4404297 Z M105.536329,31.7558594 L106.576368,31.7558594 L106.576368,32.7373047 C106.709832,32.5908196 106.860384,32.4524746 107.028028,32.3222656 C107.195672,32.1920566 107.368196,32.0764979 107.545606,31.9755859 C107.723016,31.874674 107.901237,31.7949222 108.080274,31.7363281 C108.259311,31.6777341 108.42858,31.6484375 108.588086,31.6484375 C108.744337,31.6484375 108.901399,31.6761065 109.059278,31.7314453 C109.217156,31.7867841 109.363639,31.8640946 109.498731,31.9633789 C109.633823,32.0626633 109.750195,32.1798496 109.847852,32.3149414 C109.945509,32.4500332 110.008985,32.5973299 110.038282,32.7568359 C110.126173,32.6038404 110.2458,32.4597989 110.397168,32.324707 C110.548536,32.1896152 110.716992,32.0724289 110.902539,31.9731445 C111.088087,31.8738602 111.283398,31.7949222 111.488477,31.7363281 C111.693556,31.6777341 111.895377,31.6484375 112.093946,31.6484375 C112.292514,31.6484375 112.478873,31.6923824 112.653028,31.7802734 C112.827182,31.8681645 112.979362,31.9861646 113.109571,32.1342773 C113.23978,32.2823901 113.342318,32.456542 113.417188,32.6567383 C113.492058,32.8569346 113.529493,33.0693348 113.529493,33.2939453 L113.529493,37 L112.484571,37 L112.484571,33.4453125 C112.484571,33.2988274 112.459343,33.1596686 112.408887,33.027832 C112.358431,32.8959954 112.290886,32.7804367 112.20625,32.6811523 C112.121615,32.581868 112.022332,32.50293 111.908399,32.4443359 C111.794466,32.3857419 111.674025,32.3564453 111.547071,32.3564453 C111.403841,32.3564453 111.258172,32.3759764 111.110059,32.4150391 C110.961946,32.4541018 110.82116,32.5078122 110.687696,32.5761719 C110.554232,32.6445316 110.432162,32.7242834 110.321485,32.8154297 C110.210807,32.906576 110.122917,33.0026037 110.057813,33.1035156 L110.057813,37 L109.017774,37 L109.017774,33.4453125 C109.017774,33.2988274 108.992546,33.1596686 108.94209,33.027832 C108.891634,32.8959954 108.822462,32.7804367 108.734571,32.6811523 C108.64668,32.581868 108.545769,32.50293 108.431836,32.4443359 C108.317904,32.3857419 108.197462,32.3564453 108.070508,32.3564453 C107.937044,32.3564453 107.799513,32.3767902 107.657911,32.4174805 C107.516308,32.4581708 107.377963,32.512695 107.242872,32.5810547 C107.10778,32.6494144 106.982455,32.7283524 106.866895,32.8178711 C106.751334,32.9073898 106.654493,33.0026037 106.576368,33.1035156 L106.576368,37 L105.536329,37 L105.536329,31.7558594 Z M117.879493,37.1123047 C117.4791,37.1123047 117.108824,37.0423184 116.768653,36.9023438 C116.428482,36.7623691 116.135516,36.5719413 115.889747,36.3310547 C115.643977,36.0901681 115.451922,35.8077816 115.313575,35.4838867 C115.175228,35.1599919 115.106055,34.8141294 115.106055,34.4462891 C115.106055,34.0589173 115.175228,33.6951514 115.313575,33.3549805 C115.451922,33.0148095 115.643977,32.7185885 115.889747,32.4663086 C116.135516,32.2140287 116.428482,32.0146492 116.768653,31.8681641 C117.108824,31.721679 117.4791,31.6484375 117.879493,31.6484375 C118.279885,31.6484375 118.648534,31.7151686 118.98545,31.8486328 C119.322365,31.982097 119.614517,32.1652007 119.861915,32.3979492 C120.109312,32.6306978 120.302181,32.9041325 120.440528,33.2182617 C120.578875,33.5323909 120.648047,33.8684878 120.648047,34.2265625 C120.648047,34.6236999 120.578875,34.9972313 120.440528,35.347168 C120.302181,35.6971046 120.109312,36.0030911 119.861915,36.2651367 C119.614517,36.5271823 119.322365,36.733886 118.98545,36.8852539 C118.648534,37.0366219 118.279885,37.1123047 117.879493,37.1123047 Z M118.074805,36.7265625 C118.279884,36.7265625 118.467871,36.6736659 118.63877,36.5678711 C118.809669,36.4620763 118.95778,36.3204761 119.083106,36.1430664 C119.208432,35.9656567 119.305274,35.7581392 119.373633,35.5205078 C119.441993,35.2828764 119.476172,35.0322279 119.476172,34.7685547 C119.476172,34.3876934 119.443621,34.0320655 119.378516,33.7016602 C119.313412,33.3712549 119.207618,33.082358 119.061133,32.8349609 C118.914648,32.5875639 118.72422,32.3930671 118.489844,32.2514648 C118.255468,32.1098626 117.967385,32.0390625 117.625586,32.0390625 C117.449804,32.0390625 117.280535,32.0895177 117.117774,32.1904297 C116.955013,32.2913417 116.810971,32.4296866 116.685645,32.6054688 C116.560319,32.7812509 116.460222,32.986327 116.385352,33.2207031 C116.310482,33.4550793 116.273047,33.7041002 116.273047,33.9677734 C116.273047,34.3486347 116.313737,34.7067041 116.395118,35.0419922 C116.476498,35.3772803 116.593685,35.6694323 116.74668,35.918457 C116.899676,36.1674817 117.088476,36.3644198 117.313086,36.5092773 C117.537697,36.6541348 117.791601,36.7265625 118.074805,36.7265625 Z M122.249024,31.7558594 L123.28418,31.7558594 L123.28418,32.7470703 C123.385092,32.6005852 123.494141,32.4606126 123.611329,32.3271484 C123.728517,32.1936842 123.850586,32.0764979 123.97754,31.9755859 C124.104493,31.874674 124.235514,31.7949222 124.370606,31.7363281 C124.505698,31.6777341 124.643229,31.6484375 124.783204,31.6484375 C124.897136,31.6484375 125.00293,31.6655272 125.100586,31.699707 C125.198243,31.7338869 125.283692,31.7794594 125.356934,31.8364258 C125.430177,31.8933922 125.487956,31.9601233 125.530274,32.0366211 C125.572592,32.1131189 125.59375,32.1936845 125.59375,32.2783203 C125.59375,32.447592 125.540854,32.5753576 125.435059,32.6616211 C125.329264,32.7478845 125.181968,32.7910156 124.993165,32.7910156 C124.875976,32.7910156 124.78239,32.7788087 124.712403,32.7543945 C124.642415,32.7299803 124.57894,32.7023114 124.521973,32.6713867 C124.465007,32.6404621 124.407227,32.6127931 124.348633,32.5883789 C124.290039,32.5639647 124.216798,32.5517578 124.128907,32.5517578 C124.060547,32.5517578 123.991375,32.5721027 123.921387,32.612793 C123.8514,32.6534833 123.781414,32.7104489 123.711426,32.7836914 C123.641439,32.856934 123.570639,32.9431961 123.499024,33.0424805 C123.427409,33.1417648 123.355795,33.2499994 123.28418,33.3671875 L123.28418,37 L122.249024,37 L122.249024,31.7558594 Z M127.419336,29.0703125 C127.500717,29.0703125 127.578027,29.084147 127.65127,29.1118164 C127.724513,29.1394858 127.787989,29.1769203 127.8417,29.2241211 C127.895411,29.2713219 127.938542,29.3266598 127.971094,29.3901367 C128.003646,29.4536136 128.019922,29.5211585 128.019922,29.5927734 C128.019922,29.6643884 128.003646,29.7319333 127.971094,29.7954102 C127.938542,29.858887 127.895411,29.914225 127.8417,29.9614258 C127.787989,30.0086265 127.724513,30.0460611 127.65127,30.0737305 C127.578027,30.1013999 127.500717,30.1152344 127.419336,30.1152344 C127.337956,30.1152344 127.261459,30.1013999 127.189844,30.0737305 C127.118229,30.0460611 127.055567,30.0086265 127.001856,29.9614258 C126.948145,29.914225 126.905014,29.858887 126.872461,29.7954102 C126.839909,29.7319333 126.823633,29.6643884 126.823633,29.5927734 C126.823633,29.5211585 126.839909,29.4536136 126.872461,29.3901367 C126.905014,29.3266598 126.948145,29.2713219 127.001856,29.2241211 C127.055567,29.1769203 127.118229,29.1394858 127.189844,29.1118164 C127.261459,29.084147 127.337956,29.0703125 127.419336,29.0703125 Z M126.911524,31.9462891 L127.643946,31.6484375 L127.94668,31.6484375 L127.94668,37 L126.911524,37 L126.911524,31.9462891 Z M133.678516,37 L132.633594,37 L132.633594,36.2822266 C132.509896,36.3766281 132.38864,36.4726558 132.269825,36.5703125 C132.151009,36.6679692 132.02243,36.7574866 131.884083,36.8388672 C131.745736,36.9202478 131.592742,36.9861651 131.425098,37.0366211 C131.257454,37.0870771 131.062957,37.1123047 130.841602,37.1123047 C130.636523,37.1123047 130.450978,37.0789391 130.284961,37.012207 C130.118945,36.9454749 129.977345,36.8535162 129.860157,36.7363281 C129.742969,36.61914 129.653451,36.4807951 129.591602,36.3212891 C129.529753,36.1617831 129.498829,35.9892587 129.498829,35.8037109 C129.498829,35.5791004 129.543587,35.3764657 129.633106,35.1958008 C129.722625,35.0151358 129.844694,34.8531908 129.999317,34.7099609 C130.15394,34.5667311 130.334602,34.4397792 130.541309,34.3291016 C130.748016,34.2184239 130.966926,34.1191411 131.198047,34.03125 C131.429168,33.9433589 131.66761,33.8652347 131.913379,33.796875 C132.159149,33.7285153 132.399218,33.6650394 132.633594,33.6064453 L132.633594,33.2792969 C132.633594,33.0416655 132.609994,32.8406584 132.562793,32.6762695 C132.515593,32.5118807 132.448048,32.3792323 132.360157,32.2783203 C132.272266,32.1774083 132.165659,32.1049807 132.040333,32.0610352 C131.915006,32.0170896 131.77422,31.9951172 131.617969,31.9951172 C131.442187,31.9951172 131.298959,32.0179034 131.188282,32.0634766 C131.077604,32.1090497 130.990528,32.1692705 130.927051,32.2441406 C130.863574,32.3190108 130.820443,32.4044592 130.797657,32.5004883 C130.77487,32.5965174 130.763477,32.6933589 130.763477,32.7910156 C130.763477,32.8821619 130.756153,32.9700517 130.741504,33.0546875 C130.726856,33.1393233 130.700001,33.2133786 130.660938,33.2768555 C130.621875,33.3403323 130.568979,33.3916014 130.502247,33.4306641 C130.435515,33.4697268 130.350066,33.4892578 130.245899,33.4892578 C130.164518,33.4892578 130.090463,33.4737957 130.023731,33.4428711 C129.956999,33.4119465 129.89922,33.3688154 129.850391,33.3134766 C129.801563,33.2581377 129.764128,33.1930342 129.738086,33.1181641 C129.712045,33.0432939 129.699024,32.9619145 129.699024,32.8740234 C129.699024,32.7014965 129.75599,32.5403653 129.869922,32.390625 C129.983855,32.2408847 130.136849,32.1114914 130.328907,32.0024414 C130.520965,31.8933914 130.745572,31.8071292 131.002735,31.7436523 C131.259898,31.6801755 131.530077,31.6484375 131.813282,31.6484375 C132.158336,31.6484375 132.449674,31.6818031 132.687305,31.7485352 C132.924937,31.8152673 133.116992,31.9088536 133.263477,32.0292969 C133.409962,32.1497402 133.515755,32.2962231 133.58086,32.46875 C133.645964,32.6412769 133.678516,32.8317047 133.678516,33.0400391 L133.678516,37 Z M132.633594,33.9433594 C132.483854,33.9921877 132.328419,34.0475257 132.167286,34.109375 C132.006152,34.1712243 131.848276,34.2403968 131.693653,34.3168945 C131.53903,34.3933923 131.391733,34.4763993 131.251758,34.565918 C131.111784,34.6554366 130.988901,34.7506505 130.883106,34.8515625 C130.777311,34.9524745 130.69349,35.0598953 130.631641,35.1738281 C130.569792,35.287761 130.538868,35.4065749 130.538868,35.5302734 C130.538868,35.6572272 130.562468,35.7784825 130.609668,35.894043 C130.656869,36.0096034 130.719531,36.1105139 130.797657,36.1967773 C130.875782,36.2830408 130.966113,36.3513995 131.068653,36.4018555 C131.171192,36.4523115 131.277799,36.4775391 131.388477,36.4775391 C131.505665,36.4775391 131.617155,36.462077 131.72295,36.4311523 C131.828745,36.4002277 131.931283,36.3587242 132.030567,36.3066406 C132.129851,36.254557 132.229134,36.1935225 132.328418,36.1235352 C132.427703,36.0535478 132.529427,35.9794926 132.633594,35.9013672 L132.633594,33.9433594 Z M136.758985,37 L135.718946,37 L135.718946,29.3681641 L136.461133,29.0703125 L136.758985,29.0703125 L136.758985,37 Z M145.239258,31.7558594 L145.239258,32.1953125 L143.837891,32.1953125 L143.837891,37 L142.792969,37 L142.792969,32.1953125 L141.694337,32.1953125 L141.694337,31.7558594 L142.792969,31.7558594 L142.792969,31.140625 C142.792969,30.8541652 142.844238,30.5847994 142.946778,30.3325195 C143.049318,30.0802396 143.188476,29.8605153 143.364258,29.6733398 C143.540041,29.4861644 143.746744,29.3388677 143.984376,29.2314453 C144.222007,29.1240229 144.475911,29.0703125 144.746094,29.0703125 C144.977215,29.0703125 145.183105,29.0939125 145.36377,29.1411133 C145.544435,29.188314 145.696615,29.25179 145.820313,29.331543 C145.944012,29.411296 146.038412,29.5056961 146.103516,29.6147461 C146.168621,29.7237961 146.201172,29.8401687 146.201172,29.9638672 C146.201172,30.0419926 146.186524,30.1111651 146.157227,30.1713867 C146.12793,30.2316084 146.088868,30.2828774 146.04004,30.3251953 C145.991211,30.3675132 145.934246,30.400065 145.869141,30.4228516 C145.804037,30.4456381 145.735678,30.4570312 145.664063,30.4570312 C145.537109,30.4570312 145.440268,30.4326174 145.373536,30.3837891 C145.306804,30.3349607 145.255535,30.2731124 145.219727,30.1982422 C145.18392,30.123372 145.155437,30.0428064 145.134278,29.956543 C145.113119,29.8702795 145.083009,29.7897139 145.043946,29.7148438 C145.004883,29.6399736 144.948731,29.5781252 144.875489,29.5292969 C144.802246,29.4804685 144.697267,29.4560547 144.560547,29.4560547 C144.45638,29.4560547 144.359539,29.4861651 144.27002,29.5463867 C144.180501,29.6066084 144.104005,29.6855464 144.040528,29.7832031 C143.977051,29.8808599 143.92741,29.9931634 143.891602,30.1201172 C143.855795,30.2470709 143.837891,30.377278 143.837891,30.5107422 L143.837891,31.7558594 L145.239258,31.7558594 Z M149.198633,37.1123047 C148.798241,37.1123047 148.427965,37.0423184 148.087794,36.9023438 C147.747623,36.7623691 147.454657,36.5719413 147.208887,36.3310547 C146.963118,36.0901681 146.771063,35.8077816 146.632715,35.4838867 C146.494368,35.1599919 146.425196,34.8141294 146.425196,34.4462891 C146.425196,34.0589173 146.494368,33.6951514 146.632715,33.3549805 C146.771063,33.0148095 146.963118,32.7185885 147.208887,32.4663086 C147.454657,32.2140287 147.747623,32.0146492 148.087794,31.8681641 C148.427965,31.721679 148.798241,31.6484375 149.198633,31.6484375 C149.599026,31.6484375 149.967675,31.7151686 150.30459,31.8486328 C150.641506,31.982097 150.933658,32.1652007 151.181055,32.3979492 C151.428452,32.6306978 151.621322,32.9041325 151.759669,33.2182617 C151.898016,33.5323909 151.967188,33.8684878 151.967188,34.2265625 C151.967188,34.6236999 151.898016,34.9972313 151.759669,35.347168 C151.621322,35.6971046 151.428452,36.0030911 151.181055,36.2651367 C150.933658,36.5271823 150.641506,36.733886 150.30459,36.8852539 C149.967675,37.0366219 149.599026,37.1123047 149.198633,37.1123047 Z M149.393946,36.7265625 C149.599025,36.7265625 149.787011,36.6736659 149.957911,36.5678711 C150.12881,36.4620763 150.276921,36.3204761 150.402247,36.1430664 C150.527573,35.9656567 150.624414,35.7581392 150.692774,35.5205078 C150.761134,35.2828764 150.795313,35.0322279 150.795313,34.7685547 C150.795313,34.3876934 150.762761,34.0320655 150.697657,33.7016602 C150.632552,33.3712549 150.526759,33.082358 150.380274,32.8349609 C150.233789,32.5875639 150.043361,32.3930671 149.808985,32.2514648 C149.574609,32.1098626 149.286526,32.0390625 148.944727,32.0390625 C148.768945,32.0390625 148.599676,32.0895177 148.436915,32.1904297 C148.274153,32.2913417 148.130112,32.4296866 148.004786,32.6054688 C147.87946,32.7812509 147.779363,32.986327 147.704493,33.2207031 C147.629623,33.4550793 147.592188,33.7041002 147.592188,33.9677734 C147.592188,34.3486347 147.632878,34.7067041 147.714258,35.0419922 C147.795639,35.3772803 147.912825,35.6694323 148.065821,35.918457 C148.218816,36.1674817 148.407617,36.3644198 148.632227,36.5092773 C148.856838,36.6541348 149.110741,36.7265625 149.393946,36.7265625 Z M154.608204,31.7558594 L154.608204,35.4863281 C154.608204,35.6165371 154.638314,35.73942 154.698536,35.8549805 C154.758757,35.9705409 154.840951,36.0706376 154.945118,36.1552734 C155.049285,36.2399093 155.171354,36.3074542 155.311329,36.3579102 C155.451303,36.4083661 155.601042,36.4335938 155.760548,36.4335938 C155.864715,36.4335938 155.975391,36.4116213 156.092579,36.3676758 C156.209767,36.3237302 156.324512,36.2626957 156.436817,36.1845703 C156.549122,36.1064449 156.654916,36.0161138 156.7542,35.9135742 C156.853484,35.8110346 156.935677,35.7011725 157.000782,35.5839844 L157.000782,31.7558594 L158.040821,31.7558594 L158.040821,37 L157.000782,37 L157.000782,36.0185547 C156.909636,36.168295 156.794891,36.3098952 156.656544,36.4433594 C156.518197,36.5768236 156.368458,36.6931961 156.207325,36.7924805 C156.046191,36.8917648 155.880177,36.969889 155.709278,37.0268555 C155.538379,37.0838219 155.376434,37.1123047 155.223438,37.1123047 C154.995572,37.1123047 154.780731,37.0691736 154.578907,36.9829102 C154.377083,36.8966467 154.201303,36.7802742 154.051563,36.6337891 C153.901823,36.487304 153.783823,36.3155934 153.697559,36.1186523 C153.611296,35.9217113 153.568165,35.7109386 153.568165,35.4863281 L153.568165,31.7558594 L154.608204,31.7558594 Z M159.861524,31.7558594 L160.901563,31.7558594 L160.901563,32.7128906 C161.21732,32.3580711 161.546093,32.0919605 161.887891,31.9145508 C162.22969,31.737141 162.577994,31.6484375 162.932813,31.6484375 C163.115106,31.6484375 163.286816,31.689941 163.44795,31.7729492 C163.609084,31.8559574 163.749056,31.9690748 163.867872,32.1123047 C163.986687,32.2555346 164.081088,32.4239899 164.151075,32.6176758 C164.221062,32.8113616 164.256055,33.0172515 164.256055,33.2353516 L164.256055,37 L163.211133,37 L163.211133,33.4111328 C163.211133,33.066079 163.133009,32.8040374 162.976758,32.625 C162.820508,32.4459626 162.620314,32.3564453 162.376173,32.3564453 C162.265495,32.3564453 162.148309,32.3743488 162.02461,32.4101562 C161.900912,32.4459637 161.775587,32.4972327 161.648633,32.5639648 C161.52168,32.6306969 161.394728,32.7104488 161.267774,32.8032227 C161.14082,32.8959966 161.018751,32.9993484 160.901563,33.1132812 L160.901563,37 L159.861524,37 L159.861524,31.7558594 Z M169.763282,36.4873047 C169.642839,36.5849614 169.512632,36.6720374 169.372657,36.7485352 C169.232682,36.8250329 169.087013,36.8901365 168.935645,36.9438477 C168.784277,36.9975589 168.631284,37.0390624 168.476661,37.0683594 C168.322038,37.0976564 168.171486,37.1123047 168.025001,37.1123047 C167.715754,37.1123047 167.426858,37.0406908 167.158301,36.8974609 C166.889745,36.7542311 166.655373,36.5605481 166.455176,36.3164062 C166.25498,36.0722644 166.097104,35.7890641 165.981544,35.4667969 C165.865983,35.1445296 165.808204,34.8043638 165.808204,34.4462891 C165.808204,34.2086577 165.841569,33.974285 165.908301,33.7431641 C165.975034,33.5120431 166.067806,33.2931325 166.186622,33.0864258 C166.305437,32.879719 166.448665,32.6884774 166.616309,32.5126953 C166.783953,32.3369132 166.970312,32.1847337 167.175391,32.0561523 C167.38047,31.927571 167.599381,31.8274743 167.83213,31.7558594 C168.064878,31.6842444 168.308203,31.6484375 168.56211,31.6484375 C168.816018,31.6484375 169.038997,31.6931962 169.231055,31.7827148 C169.423114,31.8722335 169.600521,31.9902336 169.763282,32.1367188 L169.763282,29.3681641 L170.490821,29.0703125 L170.798438,29.0703125 L170.798438,37.1123047 L169.763282,37.1123047 L169.763282,36.4873047 Z M169.763282,33.4208984 C169.763282,33.2158193 169.725034,33.0278329 169.648536,32.8569336 C169.572038,32.6860343 169.471941,32.5403652 169.348243,32.4199219 C169.224544,32.2994786 169.084572,32.2058923 168.928321,32.1391602 C168.77207,32.0724281 168.614194,32.0390625 168.454688,32.0390625 C168.246354,32.0390625 168.051857,32.0911453 167.871192,32.1953125 C167.690527,32.2994797 167.532651,32.444335 167.397559,32.6298828 C167.262467,32.8154306 167.15586,33.0375964 167.077735,33.2963867 C166.99961,33.5551771 166.960548,33.8391912 166.960548,34.1484375 C166.960548,34.4804704 167.003679,34.7921535 167.089942,35.0834961 C167.176206,35.3748387 167.294206,35.6287424 167.443946,35.8452148 C167.593686,36.0616873 167.768652,36.232584 167.968848,36.3579102 C168.169045,36.4832363 168.383072,36.5458984 168.610938,36.5458984 C168.721616,36.5458984 168.831478,36.5312501 168.940528,36.5019531 C169.049578,36.4726561 169.153744,36.433594 169.253028,36.3847656 C169.352312,36.3359373 169.445899,36.2789717 169.53379,36.2138672 C169.621681,36.1487627 169.698177,36.080404 169.763282,36.0087891 L169.763282,33.4208984 Z M176.481446,37 L175.436524,37 L175.436524,36.2822266 C175.312826,36.3766281 175.19157,36.4726558 175.072755,36.5703125 C174.953939,36.6679692 174.825359,36.7574866 174.687012,36.8388672 C174.548665,36.9202478 174.395672,36.9861651 174.228028,37.0366211 C174.060384,37.0870771 173.865887,37.1123047 173.644532,37.1123047 C173.439453,37.1123047 173.253908,37.0789391 173.087891,37.012207 C172.921875,36.9454749 172.780275,36.8535162 172.663087,36.7363281 C172.545899,36.61914 172.456381,36.4807951 172.394532,36.3212891 C172.332683,36.1617831 172.301759,35.9892587 172.301759,35.8037109 C172.301759,35.5791004 172.346517,35.3764657 172.436036,35.1958008 C172.525555,35.0151358 172.647624,34.8531908 172.802247,34.7099609 C172.95687,34.5667311 173.137532,34.4397792 173.344239,34.3291016 C173.550946,34.2184239 173.769856,34.1191411 174.000977,34.03125 C174.232098,33.9433589 174.47054,33.8652347 174.716309,33.796875 C174.962079,33.7285153 175.202148,33.6650394 175.436524,33.6064453 L175.436524,33.2792969 C175.436524,33.0416655 175.412924,32.8406584 175.365723,32.6762695 C175.318523,32.5118807 175.250978,32.3792323 175.163087,32.2783203 C175.075196,32.1774083 174.968589,32.1049807 174.843262,32.0610352 C174.717936,32.0170896 174.57715,31.9951172 174.420899,31.9951172 C174.245117,31.9951172 174.101889,32.0179034 173.991212,32.0634766 C173.880534,32.1090497 173.793458,32.1692705 173.729981,32.2441406 C173.666504,32.3190108 173.623373,32.4044592 173.600587,32.5004883 C173.5778,32.5965174 173.566407,32.6933589 173.566407,32.7910156 C173.566407,32.8821619 173.559083,32.9700517 173.544434,33.0546875 C173.529786,33.1393233 173.502931,33.2133786 173.463868,33.2768555 C173.424805,33.3403323 173.371909,33.3916014 173.305176,33.4306641 C173.238444,33.4697268 173.152996,33.4892578 173.048829,33.4892578 C172.967448,33.4892578 172.893393,33.4737957 172.826661,33.4428711 C172.759929,33.4119465 172.702149,33.3688154 172.653321,33.3134766 C172.604493,33.2581377 172.567058,33.1930342 172.541016,33.1181641 C172.514975,33.0432939 172.501954,32.9619145 172.501954,32.8740234 C172.501954,32.7014965 172.558919,32.5403653 172.672852,32.390625 C172.786785,32.2408847 172.939778,32.1114914 173.131837,32.0024414 C173.323895,31.8933914 173.548502,31.8071292 173.805665,31.7436523 C174.062828,31.6801755 174.333007,31.6484375 174.616212,31.6484375 C174.961265,31.6484375 175.252604,31.6818031 175.490235,31.7485352 C175.727866,31.8152673 175.919922,31.9088536 176.066407,32.0292969 C176.212892,32.1497402 176.318685,32.2962231 176.38379,32.46875 C176.448894,32.6412769 176.481446,32.8317047 176.481446,33.0400391 L176.481446,37 Z M175.436524,33.9433594 C175.286784,33.9921877 175.131349,34.0475257 174.970216,34.109375 C174.809082,34.1712243 174.651206,34.2403968 174.496583,34.3168945 C174.34196,34.3933923 174.194663,34.4763993 174.054688,34.565918 C173.914714,34.6554366 173.791831,34.7506505 173.686036,34.8515625 C173.580241,34.9524745 173.49642,35.0598953 173.434571,35.1738281 C173.372722,35.287761 173.341798,35.4065749 173.341798,35.5302734 C173.341798,35.6572272 173.365398,35.7784825 173.412598,35.894043 C173.459799,36.0096034 173.522461,36.1105139 173.600587,36.1967773 C173.678712,36.2830408 173.769043,36.3513995 173.871583,36.4018555 C173.974122,36.4523115 174.080729,36.4775391 174.191407,36.4775391 C174.308595,36.4775391 174.420085,36.462077 174.52588,36.4311523 C174.631674,36.4002277 174.734212,36.3587242 174.833497,36.3066406 C174.932781,36.254557 175.032064,36.1935225 175.131348,36.1235352 C175.230633,36.0535478 175.332357,35.9794926 175.436524,35.9013672 L175.436524,33.9433594 Z M181.266016,36.3310547 C181.126042,36.5719413 180.940497,36.7623691 180.709376,36.9023438 C180.478255,37.0423184 180.193427,37.1123047 179.854884,37.1123047 C179.679101,37.1123047 179.526922,37.0830081 179.398341,37.0244141 C179.269759,36.96582 179.163152,36.882813 179.078516,36.7753906 C178.993881,36.6679682 178.931218,36.5393888 178.890528,36.3896484 C178.849838,36.2399081 178.829493,36.0738941 178.829493,35.8916016 L178.829493,32.1953125 L177.92129,32.1953125 L177.92129,31.9365234 C178.21426,31.9365234 178.455143,31.8836268 178.643946,31.777832 C178.832749,31.6720372 178.98737,31.5288095 179.107813,31.3481445 C179.228257,31.1674796 179.322657,30.9583345 179.391016,30.7207031 C179.459376,30.4830717 179.519597,30.2307956 179.57168,29.9638672 L179.869532,29.9638672 L179.869532,31.7558594 L181.04629,31.7558594 L181.04629,32.1953125 L179.869532,32.1953125 L179.869532,35.8916016 C179.869532,35.969727 179.88418,36.0429684 179.913477,36.1113281 C179.942774,36.1796878 179.98265,36.2390948 180.033106,36.2895508 C180.083562,36.3400068 180.143783,36.3798827 180.21377,36.4091797 C180.283758,36.4384767 180.357813,36.453125 180.435938,36.453125 C180.553126,36.453125 180.659733,36.4246422 180.755762,36.3676758 C180.851792,36.3107094 180.935612,36.2399093 181.007227,36.1552734 L181.266016,36.3310547 Z M183.05254,29.0703125 C183.13392,29.0703125 183.211231,29.084147 183.284473,29.1118164 C183.357716,29.1394858 183.421192,29.1769203 183.474903,29.2241211 C183.528614,29.2713219 183.571745,29.3266598 183.604298,29.3901367 C183.63685,29.4536136 183.653126,29.5211585 183.653126,29.5927734 C183.653126,29.6643884 183.63685,29.7319333 183.604298,29.7954102 C183.571745,29.858887 183.528614,29.914225 183.474903,29.9614258 C183.421192,30.0086265 183.357716,30.0460611 183.284473,30.0737305 C183.211231,30.1013999 183.13392,30.1152344 183.05254,30.1152344 C182.971159,30.1152344 182.894663,30.1013999 182.823048,30.0737305 C182.751433,30.0460611 182.688771,30.0086265 182.635059,29.9614258 C182.581348,29.914225 182.538217,29.858887 182.505665,29.7954102 C182.473113,29.7319333 182.456837,29.6643884 182.456837,29.5927734 C182.456837,29.5211585 182.473113,29.4536136 182.505665,29.3901367 C182.538217,29.3266598 182.581348,29.2713219 182.635059,29.2241211 C182.688771,29.1769203 182.751433,29.1394858 182.823048,29.1118164 C182.894663,29.084147 182.971159,29.0703125 183.05254,29.0703125 Z M182.544727,31.9462891 L183.277149,31.6484375 L183.579884,31.6484375 L183.579884,37 L182.544727,37 L182.544727,31.9462891 Z M188.003126,37.1123047 C187.602733,37.1123047 187.232457,37.0423184 186.892286,36.9023438 C186.552115,36.7623691 186.259149,36.5719413 186.01338,36.3310547 C185.76761,36.0901681 185.575555,35.8077816 185.437208,35.4838867 C185.298861,35.1599919 185.229688,34.8141294 185.229688,34.4462891 C185.229688,34.0589173 185.298861,33.6951514 185.437208,33.3549805 C185.575555,33.0148095 185.76761,32.7185885 186.01338,32.4663086 C186.259149,32.2140287 186.552115,32.0146492 186.892286,31.8681641 C187.232457,31.721679 187.602733,31.6484375 188.003126,31.6484375 C188.403518,31.6484375 188.772167,31.7151686 189.109083,31.8486328 C189.445999,31.982097 189.738151,32.1652007 189.985548,32.3979492 C190.232945,32.6306978 190.425814,32.9041325 190.564161,33.2182617 C190.702508,33.5323909 190.77168,33.8684878 190.77168,34.2265625 C190.77168,34.6236999 190.702508,34.9972313 190.564161,35.347168 C190.425814,35.6971046 190.232945,36.0030911 189.985548,36.2651367 C189.738151,36.5271823 189.445999,36.733886 189.109083,36.8852539 C188.772167,37.0366219 188.403518,37.1123047 188.003126,37.1123047 Z M188.198438,36.7265625 C188.403517,36.7265625 188.591504,36.6736659 188.762403,36.5678711 C188.933302,36.4620763 189.081413,36.3204761 189.206739,36.1430664 C189.332065,35.9656567 189.428907,35.7581392 189.497266,35.5205078 C189.565626,35.2828764 189.599805,35.0322279 189.599805,34.7685547 C189.599805,34.3876934 189.567254,34.0320655 189.502149,33.7016602 C189.437045,33.3712549 189.331252,33.082358 189.184766,32.8349609 C189.038281,32.5875639 188.847854,32.3930671 188.613477,32.2514648 C188.379101,32.1098626 188.091018,32.0390625 187.74922,32.0390625 C187.573437,32.0390625 187.404168,32.0895177 187.241407,32.1904297 C187.078646,32.2913417 186.934604,32.4296866 186.809278,32.6054688 C186.683952,32.7812509 186.583855,32.986327 186.508985,33.2207031 C186.434115,33.4550793 186.39668,33.7041002 186.39668,33.9677734 C186.39668,34.3486347 186.43737,34.7067041 186.518751,35.0419922 C186.600131,35.3772803 186.717318,35.6694323 186.870313,35.918457 C187.023309,36.1674817 187.212109,36.3644198 187.43672,36.5092773 C187.66133,36.6541348 187.915234,36.7265625 188.198438,36.7265625 Z M192.372657,31.7558594 L193.412696,31.7558594 L193.412696,32.7128906 C193.728453,32.3580711 194.057226,32.0919605 194.399024,31.9145508 C194.740823,31.737141 195.089127,31.6484375 195.443946,31.6484375 C195.626239,31.6484375 195.797949,31.689941 195.959083,31.7729492 C196.120216,31.8559574 196.260189,31.9690748 196.379005,32.1123047 C196.49782,32.2555346 196.592221,32.4239899 196.662208,32.6176758 C196.732195,32.8113616 196.767188,33.0172515 196.767188,33.2353516 L196.767188,37 L195.722266,37 L195.722266,33.4111328 C195.722266,33.066079 195.644142,32.8040374 195.487891,32.625 C195.331641,32.4459626 195.131447,32.3564453 194.887305,32.3564453 C194.776628,32.3564453 194.659442,32.3743488 194.535743,32.4101562 C194.412044,32.4459637 194.28672,32.4972327 194.159766,32.5639648 C194.032813,32.6306969 193.905861,32.7104488 193.778907,32.8032227 C193.651953,32.8959966 193.529884,32.9993484 193.412696,33.1132812 L193.412696,37 L192.372657,37 L192.372657,31.7558594 Z" id="Chau-ting-chang-memo"></path>
        </g>
    </g>
</svg>