<?xml version="1.0" encoding="UTF-8"?>
<svg width="220px" height="43px" viewBox="0 0 220 43" version="1.1" xmlns="http://www.w3.org/2000/svg" xmlns:xlink="http://www.w3.org/1999/xlink">
    <!-- Generator: Sketch 47.1 (45422) - http://www.bohemiancoding.com/sketch -->
    <title>Group 22</title>
    <desc>Created with Sketch.</desc>
    <defs></defs>
    <g id="桌機版" stroke="none" stroke-width="1" fill="none" fill-rule="evenodd">
        <g id="Group-22">
            <path d="M24.3958,0.9438 L24.3958,2.8314 L13.6994,2.8314 L13.6994,5.2052 L23.3376,5.2052 L23.3376,7.0642 L13.6994,7.0642 L13.6994,9.3808 L23.452,9.3808 L23.452,11.1826 L13.6994,11.1826 L13.6994,13.5278 L25.6542,13.5278 L25.6542,15.4154 L13.5278,15.4154 L13.5278,23.8524 C15.015,23.3948 16.5308,22.737 18.0466,21.9076 L18.3898,23.7666 C16.445,24.739 14.2142,25.5398 11.6974,26.169 L10.868,24.4244 C11.3256,24.1956 11.583,23.881 11.583,23.4234 L11.583,15.4154 L9.4666,15.4154 L9.4666,13.5278 L11.7546,13.5278 L11.7546,0.9438 L24.3958,0.9438 Z M23.5664,16.5594 L24.9106,17.9322 C23.7952,19.3908 22.5368,20.5062 21.164,21.2784 C22.4796,22.7656 24.1098,23.9096 26.026,24.7104 L24.9106,26.3406 C21.021,24.6818 18.2468,21.5644 16.6166,16.9884 L18.161,16.1018 C18.6758,17.5032 19.305,18.7616 20.0486,19.877 C21.2784,19.1334 22.451,18.018 23.5664,16.5594 Z M3.003,9.4666 L8.4942,9.4666 L8.4942,1.1726 L0,1.1726 L0,3.0602 L6.5494,3.0602 L6.5494,7.6648 L1.2012,7.6648 L0.286,15.9302 L6.4064,15.9302 C6.4064,19.305 6.292,21.5358 6.0632,22.594 C5.8058,23.6236 4.9192,24.167 3.4034,24.167 C2.4882,24.167 1.573,24.1098 0.6578,24.0526 L1.1726,25.9402 C2.0878,25.9974 2.9744,26.0546 3.8324,26.0546 C6.2348,25.9402 7.6076,25.0822 7.9508,23.452 C8.2368,21.9648 8.3798,18.876 8.3798,14.1284 L2.3738,14.1284 L3.003,9.4666 Z M51.8716,14.3572 L51.8716,26.312 L49.841,26.312 L49.841,24.9106 L41.4898,24.9106 L41.4898,26.312 L39.4306,26.312 L39.4306,14.3572 L51.8716,14.3572 Z M41.4898,22.9086 L49.841,22.9086 L49.841,16.3592 L41.4898,16.3592 L41.4898,22.9086 Z M43.12,3.146 C42.7482,5.148 42.2048,6.7782 41.4898,8.0366 C40.689,9.3236 39.4592,10.5248 37.829,11.6116 L39.0302,13.1274 C40.9178,11.869 42.3192,10.4676 43.263,8.866 C44.0352,7.4646 44.6644,5.5484 45.122,3.146 L50.2414,3.146 C50.1842,6.578 50.0698,8.6658 49.8696,9.4666 C49.6408,10.2674 49.126,10.6964 48.268,10.7536 C47.5816,10.725 46.7236,10.6678 45.694,10.6106 L46.2088,12.4696 C47.1812,12.5268 48.0392,12.584 48.7256,12.584 C50.0412,12.584 50.9278,12.0406 51.4426,10.9824 C51.986,9.8956 52.272,6.6352 52.3006,1.2012 L38.6298,1.2012 L38.6298,3.146 L43.12,3.146 Z M36.8852,2.2594 L36.8852,23.309 L34.8832,23.309 L34.8832,21.2784 L30.5646,21.2784 L30.5646,23.9954 L28.5626,23.9954 L28.5626,2.2594 L36.8852,2.2594 Z M30.5646,19.3336 L34.8832,19.3336 L34.8832,12.5554 L30.5646,12.5554 L30.5646,19.3336 Z M30.5646,10.6678 L34.8832,10.6678 L34.8832,4.1756 L30.5646,4.1756 L30.5646,10.6678 Z M61.6153999,0.7436 L74.7427999,0.7436 L74.7427999,12.6984 L61.6153999,12.6984 L61.6153999,0.7436 Z M72.7979999,10.9538 L72.7979999,9.0662 L63.5601999,9.0662 L63.5601999,10.9538 L72.7979999,10.9538 Z M63.5601999,7.6362 L72.7979999,7.6362 L72.7979999,5.7772 L63.5601999,5.7772 L63.5601999,7.6362 Z M63.5601999,4.3472 L72.7979999,4.3472 L72.7979999,2.4596 L63.5601999,2.4596 L63.5601999,4.3472 Z M55.4949999,18.6758 L64.1893999,18.6758 L64.1893999,16.3306 L56.6389999,16.3306 L56.6389999,2.9172 L58.6695999,2.9172 L58.6695999,14.443 L66.1913999,14.443 L66.1913999,26.2262 L64.1893999,26.2262 L64.1893999,20.5348 L60.3855999,20.5348 C60.0995999,23.0802 58.8697999,25.025 56.7533999,26.3692 L55.1517999,24.9678 C56.9821999,23.9668 58.0689999,22.4796 58.4121999,20.5348 L55.4949999,20.5348 L55.4949999,18.6758 Z M71.9399999,16.3306 L71.9399999,18.6758 L80.0623999,18.6758 L80.0623999,26.2548 L78.0603999,26.2548 L78.0603999,20.5348 L71.9399999,20.5348 L71.9399999,26.2548 L69.9665999,26.2548 L69.9665999,14.443 L77.6599999,14.443 L77.6599999,2.6312 L79.6619999,2.6312 L79.6619999,16.3306 L71.9399999,16.3306 Z M108.8824,18.4756 L106.8518,17.7892 C106.7374,20.0486 106.5372,21.5644 106.2512,22.308 C105.9366,23.0802 105.2788,23.4806 104.3064,23.4806 L98.7865999,23.4806 C97.9857999,23.452 97.5567999,23.0516 97.5567999,22.308 L97.5567999,12.6412 L106.909,12.6412 L106.909,1.2584 L94.6395999,1.2584 L94.6395999,3.2604 L104.8784,3.2604 L104.8784,10.6392 L95.5261999,10.6392 L95.5261999,23.0802 C95.5261999,24.6818 96.3269999,25.4826 97.9571999,25.4826 L104.6496,25.4826 C106.194,25.4826 107.2236,25.025 107.7384,24.167 C108.2532,23.309 108.6536,21.3928 108.8824,18.4756 Z M84.2863999,19.0762 C84.1147999,21.45 83.7429999,23.5378 83.1423999,25.3682 L85.0299999,25.9402 C85.6019999,24.024 85.9451999,21.8218 86.1167999,19.305 L84.2863999,19.0762 Z M89.2341999,18.7616 L87.4895999,19.1334 C87.8327999,20.8494 88.1187999,22.8228 88.3761999,25.0536 L90.2065999,24.6532 C89.9205999,22.5368 89.6059999,20.5634 89.2341999,18.7616 Z M92.0369999,10.9538 L90.4067999,11.4686 C90.7499999,12.3838 91.0645999,13.3276 91.3505999,14.3 C89.6059999,14.8148 87.8613999,15.2152 86.1167999,15.5012 C87.8327999,13.4992 90.0349999,10.0958 92.6661999,5.2338 L90.8071999,4.5188 C90.1207999,5.8344 89.4629999,7.0642 88.8623999,8.2082 C87.7183999,8.3798 86.6029999,8.5514 85.4589999,8.6944 C86.8317999,6.6924 88.2045999,4.0326 89.5773999,0.7436 L87.6325999,0 C86.5743999,3.0316 85.3445999,5.72 83.9431999,8.0652 C83.6857999,8.437 83.3997999,8.6944 83.0851999,8.8374 L83.5999999,10.725 L87.7755999,10.0958 C86.3455999,12.4696 85.1443999,14.157 84.1147999,15.1866 C83.8573999,15.4154 83.5427999,15.6156 83.1709999,15.7872 L83.7143999,17.6462 C86.3169999,17.3316 89.0053999,16.7596 91.8081999,15.9302 C91.9225999,16.3878 92.0369999,16.9026 92.1513999,17.4174 L93.8959999,16.9884 C93.3239999,14.7004 92.7233999,12.6984 92.0369999,10.9538 Z M92.4659999,18.018 L90.8357999,18.5614 C91.3791999,20.2202 91.8367999,21.9362 92.2085999,23.7666 L93.9531999,23.3376 C93.5241999,21.3356 93.0379999,19.5624 92.4659999,18.018 Z M122.716,0.1144 L124.5178,0.1144 C127.1776,2.8886 131.0958,5.1766 136.2724,7.007 L135.1284,8.723 C132.5544,7.7792 130.2664,6.6924 128.2644,5.4912 L128.2644,6.8354 L119.0552,6.8354 L119.0552,5.3768 C116.9388,6.721 114.6508,7.8936 112.1626,8.8946 L110.99,7.1786 C115.7662,5.3482 119.6844,2.9744 122.716,0.1144 Z M119.3698,5.1766 L127.7782,5.1766 C126.1766,4.147 124.8038,3.0602 123.6312,1.9162 C122.3156,3.1174 120.8856,4.2042 119.3698,5.1766 Z M126.8058,25.8258 L120.5138,25.8258 C118.7692,25.8258 117.9112,24.9964 117.9112,23.3376 L117.9112,17.9036 L119.999,17.9036 L119.999,22.9086 C119.999,23.595 120.3708,23.9668 121.143,23.9668 L126.434,23.9668 C127.3206,23.9668 127.9498,23.7952 128.3216,23.5092 C128.8364,23.1374 129.151,22.0792 129.3226,20.3346 L131.2102,20.9352 C130.9814,23.2518 130.4952,24.6532 129.7802,25.168 C129.151,25.597 128.15,25.8258 126.8058,25.8258 Z M114.7938,16.2448 L116.7672,16.6738 C115.852,19.8484 114.565,22.594 112.8776,24.882 L111.1044,23.7952 C112.7918,21.5072 114.0216,18.9904 114.7938,16.2448 Z M124.6608,16.9598 C125.4902,18.161 126.2338,19.4766 126.863,20.8494 L124.9754,21.6788 C124.289,20.1344 123.574,18.733 122.7732,17.5318 L124.6608,16.9598 Z M131.4676,15.7586 C133.5554,18.447 135.157,20.7922 136.2438,22.7942 L134.4992,23.9954 C133.3838,21.8218 131.8394,19.3908 129.8946,16.7596 L131.4676,15.7586 Z M115.9378,9.009 L131.2102,9.009 L131.2102,10.6678 C129.5228,13.4134 126.0336,15.444 120.7426,16.8168 L119.999,15.0436 C124.146,14.2428 127.0918,12.8128 128.865,10.8108 L115.9378,10.8108 L115.9378,9.009 Z M139.3524,2.2308 L144.4146,2.2308 L144.4146,0.0572 L146.4166,0.0572 L146.4166,2.2308 L156.2836,2.2308 L156.2836,0.0572 L158.2856,0.0572 L158.2856,2.2308 L163.3478,2.2308 L163.3478,3.9754 L158.2856,3.9754 L158.2856,13.442 L163.7768,13.442 L163.7768,15.2724 L157.828,15.2724 C159.2008,16.9884 161.3458,18.3326 164.2058,19.305 L163.3764,21.0782 C159.83,19.591 157.3132,17.6462 155.826,15.2724 L146.8456,15.2724 C145.3584,17.6462 142.956,19.6196 139.6384,21.164 L138.5802,19.4194 C141.4116,18.3326 143.4994,16.9598 144.8722,15.2724 L138.9234,15.2724 L138.9234,13.442 L144.4146,13.442 L144.4146,3.9754 L139.3524,3.9754 L139.3524,2.2308 Z M146.4166,13.442 L156.2836,13.442 L156.2836,11.3828 L146.4166,11.3828 L146.4166,13.442 Z M146.4166,9.7526 L156.2836,9.7526 L156.2836,7.722 L146.4166,7.722 L146.4166,9.7526 Z M146.4166,6.0918 L156.2836,6.0918 L156.2836,3.9754 L146.4166,3.9754 L146.4166,6.0918 Z M150.3634,16.2734 L152.3654,16.2734 L152.3654,18.5614 L158.1712,18.5614 L158.1712,20.3918 L152.3654,20.3918 L152.3654,23.4234 L162.1752,23.4234 L162.1752,25.3396 L140.3534,25.3396 L140.3534,23.4234 L150.3634,23.4234 L150.3634,20.3918 L144.5004,20.3918 L144.5004,18.5614 L150.3634,18.5614 L150.3634,16.2734 Z M171.6044,8.2654 C170.2316,9.0948 168.8016,9.867 167.3144,10.5534 L166.1132,8.8374 C171.0896,6.6066 175.1508,3.7752 178.2968,0.3146 L179.9556,0.3146 C182.7012,3.718 186.7338,6.5208 192.0534,8.7516 L190.8808,10.4676 C189.365,9.8384 187.9636,9.1234 186.648,8.3512 L186.648,9.9242 L180.1558,9.9242 L180.1558,14.0426 L190.3374,14.0426 L190.3374,15.9588 L180.1558,15.9588 L180.1558,23.595 L183.3304,23.595 C184.3028,21.736 185.1608,19.734 185.9044,17.589 L187.792,18.2468 C187.077,20.2488 186.2762,22.0506 185.4182,23.595 L191.3384,23.595 L191.3384,25.5684 L166.8854,25.5684 L166.8854,23.595 L172.8056,23.595 C172.205,21.7646 171.4328,20.0772 170.5176,18.4756 L172.3766,17.7892 C173.2632,19.3908 174.064,21.3356 174.8076,23.595 L178.0966,23.595 L178.0966,15.9588 L167.8864,15.9588 L167.8864,14.0426 L178.0966,14.0426 L178.0966,9.9242 L171.6044,9.9242 L171.6044,8.2654 Z M186.1618,8.0652 C183.359,6.4064 181.0138,4.4616 179.1262,2.2594 C176.9812,4.4902 174.5788,6.435 171.919,8.0652 L186.1618,8.0652 Z M211.321,10.1244 L212.7224,10.4676 C212.3506,11.6116 211.8644,12.584 211.2924,13.442 L209.891,12.9558 C210.4058,12.2122 210.892,11.2684 211.321,10.1244 Z M202.2834,10.0958 C202.8554,10.9538 203.3416,11.9548 203.7706,13.0988 L202.3692,13.442 C201.9688,12.4124 201.454,11.4686 200.882,10.5534 L202.2834,10.0958 Z M196.7922,8.0938 L216.8694,8.0938 L216.8694,15.3868 L196.7922,15.3868 L196.7922,8.0938 Z M214.9818,13.8424 L214.9818,9.6668 L207.7746,9.6668 L207.7746,13.8424 L214.9818,13.8424 Z M205.887,13.8424 L205.887,9.6668 L198.6798,9.6668 L198.6798,13.8424 L205.887,13.8424 Z M215.8398,16.9312 L215.8398,26.3692 L213.8664,26.3692 L213.8664,25.2824 L199.8238,25.2824 L199.8238,26.3978 L197.8504,26.3978 L197.8504,16.9312 L215.8398,16.9312 Z M199.8238,23.6522 L213.8664,23.6522 L213.8664,21.7932 L199.8238,21.7932 L199.8238,23.6522 Z M199.8238,20.3346 L213.8664,20.3346 L213.8664,18.4756 L199.8238,18.4756 L199.8238,20.3346 Z M201.1394,5.434 C199.1946,6.4922 197.0782,7.5504 194.7902,8.6086 L193.7034,6.8926 C198.308,4.9478 202.4836,2.717 206.2016,0.1716 L207.46,0.1716 C211.178,2.6884 215.3536,4.9192 219.9582,6.8354 L218.8714,8.5514 C216.5548,7.4646 214.4384,6.4064 212.4936,5.3482 L212.4936,6.5494 L201.1394,6.5494 L201.1394,5.434 Z M211.8644,5.005 C210.034,3.9754 208.3466,2.9744 206.8308,1.9448 C205.315,2.9744 203.6562,3.9754 201.883,5.005 L211.8644,5.005 Z" id="張昭鼎紀念基金會" fill="#111D2D"></path>
            <path d="M3.47167969,36.0058594 C3.47167969,36.5322292 3.55045494,37.0030904 3.70800781,37.418457 C3.86556068,37.8338237 4.08219263,38.1856268 4.35791016,38.473877 C4.63362768,38.7621271 4.96036595,38.9823397 5.33813477,39.1345215 C5.71590358,39.2867032 6.1249978,39.362793 6.56542969,39.362793 C6.82682422,39.362793 7.07926311,39.3117681 7.32275391,39.2097168 C7.56624471,39.1076655 7.79272356,38.9751799 8.00219727,38.8122559 C8.21167097,38.6493319 8.3987622,38.4649262 8.56347656,38.2590332 C8.72819093,38.0531402 8.86425728,37.8445649 8.97167969,37.6333008 L9.49804688,37.9716797 C9.34407475,38.222332 9.16235456,38.4640288 8.95288086,38.6967773 C8.74340716,38.9295259 8.50081518,39.1345206 8.22509766,39.3117676 C7.94938013,39.4890146 7.63785981,39.6313471 7.29052734,39.7387695 C6.94319488,39.8461919 6.55468965,39.8999023 6.125,39.8999023 C5.71321409,39.8999023 5.32470886,39.8524582 4.95947266,39.7575684 C4.59423646,39.6626786 4.25854645,39.5301929 3.95239258,39.3601074 C3.6462387,39.1900219 3.37231566,38.9850272 3.13061523,38.7451172 C2.88891481,38.5052071 2.68481529,38.241131 2.51831055,37.9528809 C2.35180581,37.6646307 2.22379602,37.3557959 2.13427734,37.0263672 C2.04475867,36.6969385 2,36.3567726 2,36.0058594 C2,35.6549462 2.04565384,35.3138851 2.13696289,34.982666 C2.22827194,34.6514469 2.35896725,34.3399266 2.52905273,34.0480957 C2.69913822,33.7562648 2.90771361,33.488608 3.15478516,33.2451172 C3.4018567,33.0016264 3.68025561,32.793051 3.98999023,32.6193848 C4.29972486,32.4457185 4.63899555,32.3105474 5.0078125,32.2138672 C5.37662945,32.117187 5.77050572,32.0688477 6.18945313,32.0688477 C6.58691605,32.0688477 6.95304195,32.1225581 7.2878418,32.2299805 C7.62264165,32.3374029 7.92879093,32.4797354 8.20629883,32.6569824 C8.48380673,32.8342294 8.72997939,33.0392241 8.94482422,33.2719727 C9.15966904,33.5047212 9.34407475,33.746418 9.49804688,33.9970703 L8.95556641,34.3623047 C8.64046066,33.7571584 8.28955271,33.3131525 7.90283203,33.0302734 C7.51611135,32.7473944 7.07210537,32.605957 6.57080078,32.605957 C6.13753039,32.605957 5.73291204,32.6847323 5.35693359,32.8422852 C4.98095515,32.999838 4.65332171,33.2254217 4.37402344,33.519043 C4.09472517,33.8126642 3.87451252,34.1689432 3.71337891,34.5878906 C3.55224529,35.006838 3.47167969,35.4794896 3.47167969,36.0058594 Z M12.5911524,35.0068359 C12.9384848,34.6165345 13.3001349,34.3238128 13.6761133,34.1286621 C14.0520917,33.9335114 14.4352259,33.8359375 14.8255274,33.8359375 C15.0260492,33.8359375 15.2149308,33.8815913 15.3921778,33.9729004 C15.5694247,34.0642094 15.7233946,34.1886385 15.8540918,34.3461914 C15.9847891,34.5037443 16.087734,34.6890452 16.1629297,34.9020996 C16.2381254,35.1151541 16.2757227,35.3416329 16.2757227,35.581543 L16.2757227,39.7226562 L15.1316797,39.7226562 L15.1316797,35.7749023 C15.1316797,35.3953432 15.0457431,35.1070973 14.8738672,34.9101562 C14.7019914,34.7132152 14.4799884,34.6147461 14.2078516,34.6147461 C14.0861062,34.6147461 13.9572012,34.6344399 13.8211328,34.6738281 C13.6850645,34.7132163 13.5472078,34.7696123 13.4075586,34.8430176 C13.2679095,34.9164229 13.1291576,35.0041499 12.9912989,35.1062012 C12.8534401,35.2082525 12.7200593,35.3219395 12.5911524,35.4472656 L12.5911524,39.7226562 L11.4471094,39.7226562 L11.4471094,31.3276367 L12.2635157,31 L12.5911524,31 L12.5911524,35.0068359 Z M22.5270313,39.7226562 L21.3776172,39.7226562 L21.3776172,38.9331055 C21.2415489,39.0369471 21.108168,39.1425776 20.9774708,39.25 C20.8467735,39.3574224 20.7053361,39.4558915 20.5531543,39.5454102 C20.4009726,39.6349288 20.23268,39.7074379 20.0482715,39.7629395 C19.8638631,39.818441 19.6499166,39.8461914 19.4064258,39.8461914 C19.1808388,39.8461914 18.9767392,39.8094893 18.7941211,39.736084 C18.611503,39.6626787 18.4557429,39.5615241 18.326836,39.4326172 C18.1979291,39.3037103 18.09946,39.1515308 18.0314258,38.9760742 C17.9633916,38.8006176 17.9293751,38.6108409 17.9293751,38.4067383 C17.9293751,38.1596667 17.9786096,37.9367686 18.0770801,37.7380371 C18.1755507,37.5393056 18.3098267,37.3611662 18.4799122,37.2036133 C18.6499976,37.0460604 18.8487261,36.9064134 19.0761036,36.784668 C19.303481,36.6629226 19.5442826,36.5537114 19.7985157,36.4570312 C20.0527487,36.3603511 20.3150345,36.2744144 20.5853809,36.1992188 C20.8557273,36.1240231 21.1198035,36.0541995 21.3776172,35.9897461 L21.3776172,35.6298828 C21.3776172,35.3684883 21.3516572,35.1473805 21.2997364,34.9665527 C21.2478155,34.785725 21.1735162,34.6398118 21.076836,34.5288086 C20.9801558,34.4178054 20.8628881,34.338135 20.7250293,34.2897949 C20.5871706,34.2414548 20.4323056,34.2172852 20.2604297,34.2172852 C20.0670694,34.2172852 19.9095189,34.24235 19.7877735,34.2924805 C19.6660281,34.3426109 19.5702445,34.4088538 19.50042,34.4912109 C19.4305954,34.5735681 19.3831512,34.6675613 19.358086,34.7731934 C19.3330208,34.8788254 19.3204883,34.985351 19.3204883,35.0927734 C19.3204883,35.1930344 19.3124318,35.2897131 19.2963184,35.3828125 C19.2802051,35.4759119 19.2506643,35.5573727 19.2076954,35.6271973 C19.1647264,35.6970218 19.1065401,35.7534178 19.0331348,35.7963867 C18.9597295,35.8393557 18.8657363,35.8608398 18.7511524,35.8608398 C18.6616337,35.8608398 18.5801729,35.8438316 18.5067676,35.8098145 C18.4333623,35.7757974 18.369805,35.7283532 18.3160938,35.6674805 C18.2623826,35.6066078 18.2212046,35.5349939 18.1925586,35.4526367 C18.1639127,35.3702795 18.1495899,35.2807622 18.1495899,35.184082 C18.1495899,34.9943024 18.212252,34.8170581 18.3375782,34.6523438 C18.4629043,34.4876294 18.6311969,34.3452968 18.842461,34.2253418 C19.0537251,34.1053868 19.3007929,34.0104984 19.5836719,33.9406738 C19.8665509,33.8708493 20.1637485,33.8359375 20.4752735,33.8359375 C20.8548327,33.8359375 21.1753047,33.8726396 21.4366993,33.9460449 C21.6980938,34.0194502 21.9093547,34.1223952 22.0704883,34.2548828 C22.231622,34.3873705 22.3479945,34.5485017 22.4196094,34.7382812 C22.4912244,34.9280608 22.5270313,35.1375314 22.5270313,35.3666992 L22.5270313,39.7226562 Z M21.3776172,36.3603516 C21.2129029,36.4140628 21.0419248,36.4749346 20.8646778,36.5429688 C20.6874308,36.6110029 20.5137672,36.6870927 20.3436817,36.7712402 C20.1735962,36.8553878 20.0115698,36.9466955 19.8575977,37.045166 C19.7036256,37.1436366 19.5684544,37.2483718 19.4520801,37.359375 C19.3357059,37.4703782 19.243503,37.588541 19.1754688,37.7138672 C19.1074346,37.8391933 19.073418,37.9698886 19.073418,38.105957 C19.073418,38.2456062 19.099378,38.378987 19.1512989,38.5061035 C19.2032197,38.63322 19.2721481,38.7442215 19.358086,38.8391113 C19.4440239,38.9340011 19.5433882,39.0091957 19.6561817,39.0646973 C19.7689752,39.1201988 19.8862429,39.1479492 20.0079883,39.1479492 C20.1368952,39.1479492 20.259534,39.1309409 20.3759083,39.0969238 C20.4922825,39.0629067 20.6050744,39.0172529 20.7142872,38.9599609 C20.8234999,38.902669 20.9327111,38.835531 21.0419239,38.7585449 C21.1511367,38.6815589 21.2630333,38.6000981 21.3776172,38.5141602 L21.3776172,36.3603516 Z M25.861836,33.9541016 L25.861836,38.0576172 C25.861836,38.2008471 25.8949574,38.3360182 25.9612013,38.4631348 C26.0274451,38.5902513 26.1178576,38.7003576 26.2324415,38.793457 C26.3470254,38.8865565 26.4813014,38.9608558 26.6352735,39.0163574 C26.7892456,39.071859 26.9539575,39.0996094 27.1294141,39.0996094 C27.243998,39.0996094 27.3657416,39.0754397 27.4946485,39.0270996 C27.6235554,38.9787595 27.7497749,38.9116215 27.8733106,38.8256836 C27.9968464,38.7397457 28.1132189,38.6403814 28.2224317,38.5275879 C28.3316445,38.4147944 28.422057,38.293946 28.493672,38.1650391 L28.493672,33.9541016 L29.6377149,33.9541016 L29.6377149,39.7226562 L28.493672,39.7226562 L28.493672,38.6430664 C28.393411,38.8077808 28.2671916,38.9635409 28.1150098,39.1103516 C27.9628281,39.2571622 27.7981162,39.385172 27.6208692,39.4943848 C27.4436222,39.6035976 27.2610069,39.6895342 27.0730177,39.7521973 C26.8850284,39.8148603 26.7068889,39.8461914 26.5385938,39.8461914 C26.2879415,39.8461914 26.0516158,39.7987472 25.8296095,39.7038574 C25.6076031,39.6089676 25.4142457,39.4809578 25.2495313,39.3198242 C25.084817,39.1586906 24.9550168,38.969809 24.860127,38.7531738 C24.7652372,38.5365386 24.717793,38.3046887 24.717793,38.0576172 L24.717793,33.9541016 L25.861836,33.9541016 Z M33.9930274,36.6987305 L33.9930274,37.359375 L31.2430274,37.359375 L31.2430274,36.6987305 L33.9930274,36.6987305 Z M38.6706056,38.9868164 C38.5166335,39.2517917 38.312534,39.4612623 38.0583009,39.6152344 C37.8040679,39.7692065 37.4907572,39.8461914 37.1183595,39.8461914 C36.9249992,39.8461914 36.7576017,39.8139652 36.6161622,39.7495117 C36.4747227,39.6850583 36.357455,39.5937506 36.2643556,39.4755859 C36.1712562,39.3574213 36.1023278,39.2159839 36.0575685,39.0512695 C36.0128092,38.8865552 35.9904298,38.7039398 35.9904298,38.503418 L35.9904298,34.4375 L34.9914064,34.4375 L34.9914064,34.152832 C35.3136736,34.152832 35.5786449,34.0946458 35.7863283,33.9782715 C35.9940116,33.8618972 36.1640945,33.7043467 36.2965822,33.5056152 C36.4290698,33.3068838 36.5329099,33.0768242 36.6081056,32.8154297 C36.6833013,32.5540352 36.7495441,32.2765314 36.8068361,31.9829102 L37.1344728,31.9829102 L37.1344728,33.9541016 L38.4289064,33.9541016 L38.4289064,34.4375 L37.1344728,34.4375 L37.1344728,38.503418 C37.1344728,38.5893559 37.1505859,38.6699215 37.1828126,38.7451172 C37.2150394,38.8203129 37.2589028,38.8856605 37.3144044,38.9411621 C37.369906,38.9966637 37.4361488,39.0405272 37.5131349,39.0727539 C37.590121,39.1049806 37.6715817,39.1210938 37.7575197,39.1210938 C37.8864266,39.1210938 38.0036943,39.0897627 38.1093263,39.0270996 C38.2149583,38.9644365 38.3071612,38.8865565 38.3859376,38.793457 L38.6706056,38.9868164 Z M40.6357814,31 C40.7253001,31 40.8103416,31.0152179 40.8909084,31.0456543 C40.9714752,31.0760906 41.0412987,31.1172686 41.100381,31.1691895 C41.1594633,31.2211103 41.2069075,31.2819821 41.242715,31.3518066 C41.2785225,31.4216312 41.2964259,31.4959306 41.2964259,31.574707 C41.2964259,31.6534835 41.2785225,31.7277829 41.242715,31.7976074 C41.2069075,31.867432 41.1594633,31.9283038 41.100381,31.9802246 C41.0412987,32.0321454 40.9714752,32.0733234 40.8909084,32.1037598 C40.8103416,32.1341961 40.7253001,32.1494141 40.6357814,32.1494141 C40.5462627,32.1494141 40.4621164,32.1341961 40.38334,32.1037598 C40.3045636,32.0733234 40.2356352,32.0321454 40.1765529,31.9802246 C40.1174706,31.9283038 40.0700264,31.867432 40.0342189,31.7976074 C39.9984114,31.7277829 39.980508,31.6534835 39.980508,31.574707 C39.980508,31.4959306 39.9984114,31.4216312 40.0342189,31.3518066 C40.0700264,31.2819821 40.1174706,31.2211103 40.1765529,31.1691895 C40.2356352,31.1172686 40.3045636,31.0760906 40.38334,31.0456543 C40.4621164,31.0152179 40.5462627,31 40.6357814,31 Z M40.0771877,34.1635742 L40.8828517,33.8359375 L41.2158595,33.8359375 L41.2158595,39.7226562 L40.0771877,39.7226562 L40.0771877,34.1635742 Z M43.2723439,33.9541016 L44.4163869,33.9541016 L44.4163869,35.0068359 C44.7637194,34.6165345 45.1253694,34.3238128 45.5013478,34.1286621 C45.8773263,33.9335114 46.2604605,33.8359375 46.6507619,33.8359375 C46.8512837,33.8359375 47.0401653,33.8815913 47.2174123,33.9729004 C47.3946593,34.0642094 47.5486291,34.1886385 47.6793264,34.3461914 C47.8100236,34.5037443 47.9138637,34.6890452 47.9908498,34.9020996 C48.0678359,35.1151541 48.1063283,35.3416329 48.1063283,35.581543 L48.1063283,39.7226562 L46.9569142,39.7226562 L46.9569142,35.7749023 C46.9569142,35.3953432 46.8709776,35.1070973 46.6991017,34.9101562 C46.5272259,34.7132152 46.3070132,34.6147461 46.0384572,34.6147461 C45.9167118,34.6147461 45.7878069,34.6344399 45.6517385,34.6738281 C45.5156701,34.7132163 45.3778134,34.7696123 45.2381642,34.8430176 C45.0985151,34.9164229 44.9588681,35.0041499 44.8192189,35.1062012 C44.6795698,35.2082525 44.5452938,35.3219395 44.4163869,35.4472656 L44.4163869,39.7226562 L43.2723439,39.7226562 L43.2723439,33.9541016 Z M55.8078322,34.2548828 L55.8078322,34.7329102 L54.7121291,34.7329102 C54.826713,34.890463 54.9180207,35.0668122 54.9860549,35.2619629 C55.0540891,35.4571136 55.0881057,35.6513662 55.0881057,35.8447266 C55.0881057,36.1455093 55.0218629,36.4185372 54.8893752,36.6638184 C54.7568876,36.9090995 54.5724819,37.1203604 54.3361526,37.2976074 C54.0998232,37.4748544 53.8178436,37.6118159 53.4902053,37.7084961 C53.1625669,37.8051763 52.8018121,37.8535156 52.4079299,37.8535156 C52.2647,37.8535156 52.1169964,37.8409832 51.9648147,37.815918 C51.8126329,37.7908527 51.6810424,37.7604168 51.5700393,37.7246094 C51.4590361,37.8141281 51.3659381,37.9179682 51.2907424,38.0361328 C51.2155467,38.1542975 51.1779494,38.2742507 51.1779494,38.3959961 C51.1779494,38.51058 51.2415067,38.603678 51.3686233,38.675293 C51.4957398,38.7469079 51.6738793,38.7862955 51.9030471,38.793457 L54.0407424,38.8847656 C54.3809134,38.8990886 54.6646833,38.9393714 54.8920608,39.0056152 C55.1194382,39.0718591 55.3011584,39.159586 55.4372268,39.2687988 C55.5732952,39.3780116 55.6690787,39.5096021 55.7245803,39.6635742 C55.7800819,39.8175463 55.8078322,39.9876293 55.8078322,40.1738281 C55.8078322,40.5104183 55.7299522,40.8147773 55.5741897,41.0869141 C55.4184272,41.3590508 55.1928435,41.5909007 54.8974319,41.7824707 C54.6020202,41.9740407 54.2430557,42.1217443 53.8205276,42.2255859 C53.3979994,42.3294276 52.9199768,42.3813477 52.3864455,42.3813477 C51.4339668,42.3813477 50.722304,42.2739269 50.2514358,42.059082 C49.7805675,41.8442372 49.5451369,41.5595721 49.5451369,41.2050781 C49.5451369,41.0475253 49.5845246,40.8953458 49.663301,40.7485352 C49.7420774,40.6017245 49.843232,40.4611823 49.9667678,40.3269043 C50.0903036,40.1926263 50.2272651,40.0637213 50.3776565,39.9401855 C50.5280478,39.8166498 50.6766466,39.6975917 50.8234572,39.5830078 C50.7160348,39.5507811 50.6166706,39.5113935 50.5253615,39.4648438 C50.4340525,39.418294 50.3552772,39.3654788 50.2890334,39.3063965 C50.2227896,39.2473142 50.1699744,39.1828617 50.1305861,39.1130371 C50.0911979,39.0432125 50.0715041,38.9671228 50.0715041,38.8847656 C50.0715041,38.766601 50.10194,38.6457526 50.1628127,38.5222168 C50.2236854,38.398681 50.3078317,38.279623 50.4152541,38.1650391 C50.5226765,38.0504552 50.6471056,37.9457199 50.7885451,37.8508301 C50.9299846,37.7559403 51.0812689,37.6780602 51.2424026,37.6171875 C50.8521011,37.4524731 50.5477422,37.2224136 50.3293166,36.927002 C50.110891,36.6315903 50.0016799,36.2923196 50.0016799,35.9091797 C50.0016799,35.6263007 50.0670276,35.3586438 50.1977248,35.1062012 C50.3284221,34.8537585 50.5074568,34.6335459 50.7348342,34.4455566 C50.9622116,34.2575674 51.2307636,34.1089686 51.5404983,33.9997559 C51.8502329,33.8905431 52.1823422,33.8359375 52.5368361,33.8359375 C52.708712,33.8359375 52.8787949,33.8475748 53.0470901,33.8708496 C53.2153852,33.8941245 53.3720405,33.9245604 53.5170608,33.9621582 C53.662081,33.999756 53.790986,34.0436195 53.9037795,34.09375 C54.016573,34.1438805 54.1034049,34.1975909 54.1642776,34.2548828 L55.8078322,34.2548828 Z M51.1779494,39.6743164 C51.0920115,39.7387699 51.0168169,39.8103837 50.9523635,39.8891602 C50.88791,39.9679366 50.8333045,40.0511877 50.7885451,40.138916 C50.7437858,40.2266443 50.7097692,40.3143713 50.6864944,40.4020996 C50.6632195,40.4898279 50.6515822,40.573079 50.6515822,40.6518555 C50.6515822,40.7807624 50.6972361,40.9042963 50.7885451,41.0224609 C50.8798542,41.1406256 51.0159205,41.2444657 51.1967483,41.3339844 C51.377576,41.4235031 51.6040548,41.4951169 51.8761916,41.5488281 C52.1483284,41.6025393 52.4652198,41.6293945 52.8268752,41.6293945 C53.2100151,41.6293945 53.5537617,41.5989586 53.8581252,41.5380859 C54.1624887,41.4772132 54.4202986,41.3966476 54.6315627,41.2963867 C54.8428268,41.1961258 55.003958,41.0842291 55.1149611,40.9606934 C55.2259643,40.8371576 55.2814651,40.7127285 55.2814651,40.5874023 C55.2814651,40.3295886 55.1534553,40.1416022 54.8974319,40.0234375 C54.6414084,39.9052728 54.2913957,39.8461914 53.847383,39.8461914 C53.5716655,39.8461914 53.2923714,39.8399252 53.0094924,39.8273926 C52.7266134,39.81486 52.4625372,39.799642 52.2172561,39.7817383 C51.9719749,39.7638345 51.7571333,39.7450359 51.5727248,39.7253418 C51.3883163,39.7056477 51.2567259,39.6886394 51.1779494,39.6743164 Z M52.6066604,37.5527344 C52.767794,37.5527344 52.9235541,37.5160323 53.0739455,37.442627 C53.2243369,37.3692216 53.3568226,37.2680671 53.4714065,37.1391602 C53.5859904,37.0102533 53.677298,36.8598641 53.7453322,36.6879883 C53.8133664,36.5161124 53.847383,36.3317067 53.847383,36.1347656 C53.847383,35.8518866 53.8088906,35.5896008 53.7319045,35.3479004 C53.6549184,35.1062 53.5501832,34.8958342 53.4176955,34.7167969 C53.2852079,34.5377595 53.1312381,34.3972173 52.9557815,34.295166 C52.7803249,34.1931147 52.5941288,34.1420898 52.3971877,34.1420898 C52.2038274,34.1420898 52.03643,34.1823726 51.8949904,34.2629395 C51.7535509,34.3435063 51.6371784,34.4536126 51.5458694,34.5932617 C51.4545603,34.7329109 51.3874223,34.8976227 51.3444533,35.0874023 C51.3014844,35.2771819 51.2800002,35.4812815 51.2800002,35.699707 C51.2800002,35.9611016 51.3122265,36.2045887 51.3766799,36.4301758 C51.4411333,36.6557628 51.5315459,36.8518058 51.6479201,37.0183105 C51.7642944,37.1848153 51.9039415,37.3155106 52.0668654,37.4104004 C52.2297894,37.5052902 52.4097193,37.5527344 52.6066604,37.5527344 Z M63.873926,39.8461914 C63.4979476,39.8461914 63.1443541,39.771892 62.813135,39.623291 C62.4819159,39.47469 62.1936701,39.2714857 61.9483889,39.0136719 C61.7031078,38.7558581 61.5097503,38.4532895 61.3683108,38.105957 C61.2268713,37.7586246 61.1561526,37.3880228 61.1561526,36.9941406 C61.1561526,36.5572895 61.2340327,36.1473001 61.3897952,35.7641602 C61.5455577,35.3810202 61.7595041,35.0462254 62.0316409,34.7597656 C62.3037777,34.4733059 62.620669,34.2477222 62.9823245,34.0830078 C63.3439799,33.9182934 63.7324852,33.8359375 64.1478518,33.8359375 C64.4701191,33.8359375 64.7673166,33.8708493 65.0394534,33.9406738 C65.3115902,34.0104984 65.5461256,34.1071771 65.7430667,34.2307129 C65.9400078,34.3542487 66.0939776,34.5001619 66.2049807,34.668457 C66.3159839,34.8367521 66.3714846,35.0175772 66.3714846,35.2109375 C66.3714846,35.2968754 66.3491053,35.3783362 66.304346,35.4553223 C66.2595866,35.5323083 66.2014004,35.5994463 66.1297854,35.6567383 C66.0581705,35.7140302 65.9767097,35.7596841 65.8854007,35.7937012 C65.7940916,35.8277183 65.7018887,35.8447266 65.6087893,35.8447266 C65.5049477,35.8447266 65.4118496,35.8259279 65.3294924,35.7883301 C65.2471353,35.7507322 65.1764166,35.7023929 65.1173342,35.6433105 C65.0582519,35.5842282 65.0134933,35.5170902 64.9830569,35.4418945 C64.9526206,35.3666988 64.9374026,35.2897139 64.9374026,35.2109375 C64.9374026,35.0784499 64.9230798,34.9540208 64.8944339,34.8376465 C64.8657879,34.7212722 64.8156582,34.6210128 64.7440432,34.5368652 C64.6724283,34.4527177 64.5739592,34.3864749 64.4486331,34.3381348 C64.3233069,34.2897947 64.1639661,34.265625 63.9706057,34.265625 C63.7092112,34.265625 63.4746758,34.3184402 63.2669924,34.4240723 C63.0593091,34.5297043 62.8838551,34.6720369 62.7406253,34.8510742 C62.5973954,35.0301116 62.4881842,35.2404773 62.4129885,35.4821777 C62.3377929,35.7238782 62.3001956,35.9807929 62.3001956,36.2529297 C62.3001956,36.6217466 62.3485349,36.9708642 62.4452151,37.300293 C62.5418953,37.6297217 62.6779616,37.9179675 62.8534182,38.1650391 C63.0288748,38.4121106 63.2401357,38.6081536 63.4872073,38.7531738 C63.7342788,38.8981941 64.0099922,38.9707031 64.3143557,38.9707031 C64.5829118,38.9707031 64.8156568,38.92863 65.0125979,38.8444824 C65.209539,38.7603349 65.3805171,38.6466479 65.5255374,38.503418 C65.6705576,38.3601881 65.7949867,38.1936858 65.8988284,38.0039062 C66.0026701,37.8141267 66.0957681,37.6136078 66.1781253,37.4023438 L66.5218753,37.5419922 C66.4251951,37.9036476 66.2944998,38.2277004 66.1297854,38.5141602 C65.9650711,38.8006199 65.7708184,39.0423167 65.5470217,39.2392578 C65.3232251,39.4361989 65.0707862,39.586588 64.7896975,39.6904297 C64.5086089,39.7942714 64.2033548,39.8461914 63.873926,39.8461914 Z M69.400137,35.0068359 C69.7474695,34.6165345 70.1091195,34.3238128 70.4850979,34.1286621 C70.8610764,33.9335114 71.2442106,33.8359375 71.634512,33.8359375 C71.8350338,33.8359375 72.0239154,33.8815913 72.2011624,33.9729004 C72.3784094,34.0642094 72.5323792,34.1886385 72.6630765,34.3461914 C72.7937737,34.5037443 72.8967187,34.6890452 72.9719144,34.9020996 C73.04711,35.1151541 73.0847073,35.3416329 73.0847073,35.581543 L73.0847073,39.7226562 L71.9406644,39.7226562 L71.9406644,35.7749023 C71.9406644,35.3953432 71.8547277,35.1070973 71.6828519,34.9101562 C71.510976,34.7132152 71.288973,34.6147461 71.0168362,34.6147461 C70.8950908,34.6147461 70.7661859,34.6344399 70.6301175,34.6738281 C70.4940491,34.7132163 70.3561924,34.7696123 70.2165433,34.8430176 C70.0768941,34.9164229 69.9381423,35.0041499 69.8002835,35.1062012 C69.6624247,35.2082525 69.5290439,35.3219395 69.400137,35.4472656 L69.400137,39.7226562 L68.256094,39.7226562 L68.256094,31.3276367 L69.0725003,31 L69.400137,31 L69.400137,35.0068359 Z M79.3360159,39.7226562 L78.1866019,39.7226562 L78.1866019,38.9331055 C78.0505335,39.0369471 77.9171527,39.1425776 77.7864554,39.25 C77.6557581,39.3574224 77.5143207,39.4558915 77.362139,39.5454102 C77.2099572,39.6349288 77.0416646,39.7074379 76.8572562,39.7629395 C76.6728477,39.818441 76.4589013,39.8461914 76.2154105,39.8461914 C75.9898234,39.8461914 75.7857239,39.8094893 75.6031058,39.736084 C75.4204877,39.6626787 75.2647275,39.5615241 75.1358206,39.4326172 C75.0069137,39.3037103 74.9084447,39.1515308 74.8404105,38.9760742 C74.7723763,38.8006176 74.7383597,38.6108409 74.7383597,38.4067383 C74.7383597,38.1596667 74.7875942,37.9367686 74.8860648,37.7380371 C74.9845353,37.5393056 75.1188113,37.3611662 75.2888968,37.2036133 C75.4589823,37.0460604 75.6577108,36.9064134 75.8850882,36.784668 C76.1124656,36.6629226 76.3532673,36.5537114 76.6075003,36.4570312 C76.8617334,36.3603511 77.1240191,36.2744144 77.3943655,36.1992188 C77.664712,36.1240231 77.9287881,36.0541995 78.1866019,35.9897461 L78.1866019,35.6298828 C78.1866019,35.3684883 78.1606419,35.1473805 78.108721,34.9665527 C78.0568002,34.785725 77.9825008,34.6398118 77.8858206,34.5288086 C77.7891405,34.4178054 77.6718727,34.338135 77.534014,34.2897949 C77.3961552,34.2414548 77.2412902,34.2172852 77.0694144,34.2172852 C76.876054,34.2172852 76.7185035,34.24235 76.5967581,34.2924805 C76.4750127,34.3426109 76.3792292,34.4088538 76.3094046,34.4912109 C76.23958,34.5735681 76.1921359,34.6675613 76.1670706,34.7731934 C76.1420054,34.8788254 76.129473,34.985351 76.129473,35.0927734 C76.129473,35.1930344 76.1214164,35.2897131 76.105303,35.3828125 C76.0891897,35.4759119 76.059649,35.5573727 76.01668,35.6271973 C75.973711,35.6970218 75.9155248,35.7534178 75.8421195,35.7963867 C75.7687141,35.8393557 75.6747209,35.8608398 75.560137,35.8608398 C75.4706184,35.8608398 75.3891576,35.8438316 75.3157523,35.8098145 C75.242347,35.7757974 75.1787896,35.7283532 75.1250784,35.6674805 C75.0713672,35.6066078 75.0301893,35.5349939 75.0015433,35.4526367 C74.9728973,35.3702795 74.9585745,35.2807622 74.9585745,35.184082 C74.9585745,34.9943024 75.0212367,34.8170581 75.1465628,34.6523438 C75.271889,34.4876294 75.4401816,34.3452968 75.6514456,34.2253418 C75.8627097,34.1053868 76.1097775,34.0104984 76.3926566,33.9406738 C76.6755356,33.8708493 76.9727331,33.8359375 77.2842581,33.8359375 C77.6638173,33.8359375 77.9842894,33.8726396 78.2456839,33.9460449 C78.5070784,34.0194502 78.7183394,34.1223952 78.879473,34.2548828 C79.0406066,34.3873705 79.1569791,34.5485017 79.2285941,34.7382812 C79.300209,34.9280608 79.3360159,35.1375314 79.3360159,35.3666992 L79.3360159,39.7226562 Z M78.1866019,36.3603516 C78.0218875,36.4140628 77.8509094,36.4749346 77.6736624,36.5429688 C77.4964154,36.6110029 77.3227518,36.6870927 77.1526663,36.7712402 C76.9825808,36.8553878 76.8205545,36.9466955 76.6665823,37.045166 C76.5126102,37.1436366 76.377439,37.2483718 76.2610648,37.359375 C76.1446905,37.4703782 76.0524876,37.588541 75.9844534,37.7138672 C75.9164192,37.8391933 75.8824027,37.9698886 75.8824027,38.105957 C75.8824027,38.2456062 75.9083627,38.378987 75.9602835,38.5061035 C76.0122044,38.63322 76.0811327,38.7442215 76.1670706,38.8391113 C76.2530086,38.9340011 76.3523728,39.0091957 76.4651663,39.0646973 C76.5779599,39.1201988 76.6952276,39.1479492 76.816973,39.1479492 C76.9458799,39.1479492 77.0685186,39.1309409 77.1848929,39.0969238 C77.3012672,39.0629067 77.414059,39.0172529 77.5232718,38.9599609 C77.6324846,38.902669 77.7416957,38.835531 77.8509085,38.7585449 C77.9601213,38.6815589 78.072018,38.6000981 78.1866019,38.5141602 L78.1866019,36.3603516 Z M81.5267777,33.9541016 L82.6708207,33.9541016 L82.6708207,35.0068359 C83.0181531,34.6165345 83.3798031,34.3238128 83.7557816,34.1286621 C84.13176,33.9335114 84.5148942,33.8359375 84.9051957,33.8359375 C85.1057175,33.8359375 85.2945991,33.8815913 85.471846,33.9729004 C85.649093,34.0642094 85.8030628,34.1886385 85.9337601,34.3461914 C86.0644574,34.5037443 86.1682975,34.6890452 86.2452835,34.9020996 C86.3222696,35.1151541 86.3607621,35.3416329 86.3607621,35.581543 L86.3607621,39.7226562 L85.211348,39.7226562 L85.211348,35.7749023 C85.211348,35.3953432 85.1254114,35.1070973 84.9535355,34.9101562 C84.7816596,34.7132152 84.561447,34.6147461 84.292891,34.6147461 C84.1711456,34.6147461 84.0422406,34.6344399 83.9061722,34.6738281 C83.7701038,34.7132163 83.6322471,34.7696123 83.492598,34.8430176 C83.3529489,34.9164229 83.2133018,35.0041499 83.0736527,35.1062012 C82.9340035,35.2082525 82.7997275,35.3219395 82.6708207,35.4472656 L82.6708207,39.7226562 L81.5267777,39.7226562 L81.5267777,33.9541016 Z M94.062266,34.2548828 L94.062266,34.7329102 L92.9665629,34.7329102 C93.0811468,34.890463 93.1724545,35.0668122 93.2404886,35.2619629 C93.3085228,35.4571136 93.3425394,35.6513662 93.3425394,35.8447266 C93.3425394,36.1455093 93.2762966,36.4185372 93.143809,36.6638184 C93.0113213,36.9090995 92.8269156,37.1203604 92.5905863,37.2976074 C92.354257,37.4748544 92.0722774,37.6118159 91.744639,37.7084961 C91.4170007,37.8051763 91.0562458,37.8535156 90.6623636,37.8535156 C90.5191338,37.8535156 90.3714302,37.8409832 90.2192484,37.815918 C90.0670667,37.7908527 89.9354762,37.7604168 89.824473,37.7246094 C89.7134699,37.8141281 89.6203718,37.9179682 89.5451761,38.0361328 C89.4699805,38.1542975 89.4323832,38.2742507 89.4323832,38.3959961 C89.4323832,38.51058 89.4959405,38.603678 89.623057,38.675293 C89.7501735,38.7469079 89.928313,38.7862955 90.1574808,38.793457 L92.2951761,38.8847656 C92.6353471,38.8990886 92.9191171,38.9393714 93.1464945,39.0056152 C93.3738719,39.0718591 93.5555921,39.159586 93.6916605,39.2687988 C93.8277289,39.3780116 93.9235125,39.5096021 93.979014,39.6635742 C94.0345156,39.8175463 94.062266,39.9876293 94.062266,40.1738281 C94.062266,40.5104183 93.9843859,40.8147773 93.8286234,41.0869141 C93.6728609,41.3590508 93.4472772,41.5909007 93.1518656,41.7824707 C92.856454,41.9740407 92.4974895,42.1217443 92.0749613,42.2255859 C91.6524332,42.3294276 91.1744106,42.3813477 90.6408793,42.3813477 C89.6884006,42.3813477 88.9767377,42.2739269 88.5058695,42.059082 C88.0350013,41.8442372 87.7995707,41.5595721 87.7995707,41.2050781 C87.7995707,41.0475253 87.8389583,40.8953458 87.9177347,40.7485352 C87.9965112,40.6017245 88.0976658,40.4611823 88.2212015,40.3269043 C88.3447373,40.1926263 88.4816988,40.0637213 88.6320902,39.9401855 C88.7824816,39.8166498 88.9310804,39.6975917 89.077891,39.5830078 C88.9704686,39.5507811 88.8711043,39.5113935 88.7797953,39.4648438 C88.6884862,39.418294 88.609711,39.3654788 88.5434672,39.3063965 C88.4772233,39.2473142 88.4244081,39.1828617 88.3850199,39.1130371 C88.3456317,39.0432125 88.3259379,38.9671228 88.3259379,38.8847656 C88.3259379,38.766601 88.3563738,38.6457526 88.4172465,38.5222168 C88.4781192,38.398681 88.5622655,38.279623 88.6696879,38.1650391 C88.7771103,38.0504552 88.9015394,37.9457199 89.0429789,37.8508301 C89.1844184,37.7559403 89.3357027,37.6780602 89.4968363,37.6171875 C89.1065349,37.4524731 88.8021759,37.2224136 88.5837504,36.927002 C88.3653248,36.6315903 88.2561136,36.2923196 88.2561136,35.9091797 C88.2561136,35.6263007 88.3214613,35.3586438 88.4521586,35.1062012 C88.5828558,34.8537585 88.7618905,34.6335459 88.9892679,34.4455566 C89.2166454,34.2575674 89.4851974,34.1089686 89.794932,33.9997559 C90.1046666,33.8905431 90.4367759,33.8359375 90.7912699,33.8359375 C90.9631458,33.8359375 91.1332287,33.8475748 91.3015238,33.8708496 C91.4698189,33.8941245 91.6264743,33.9245604 91.7714945,33.9621582 C91.9165148,33.999756 92.0454197,34.0436195 92.1582133,34.09375 C92.2710068,34.1438805 92.3578386,34.1975909 92.4187113,34.2548828 L94.062266,34.2548828 Z M89.4323832,39.6743164 C89.3464452,39.7387699 89.2712507,39.8103837 89.2067972,39.8891602 C89.1423438,39.9679366 89.0877382,40.0511877 89.0429789,40.138916 C88.9982195,40.2266443 88.964203,40.3143713 88.9409281,40.4020996 C88.9176532,40.4898279 88.906016,40.573079 88.906016,40.6518555 C88.906016,40.7807624 88.9516698,40.9042963 89.0429789,41.0224609 C89.1342879,41.1406256 89.2703543,41.2444657 89.451182,41.3339844 C89.6320097,41.4235031 89.8584886,41.4951169 90.1306254,41.5488281 C90.4027621,41.6025393 90.7196535,41.6293945 91.081309,41.6293945 C91.4644489,41.6293945 91.8081955,41.5989586 92.112559,41.5380859 C92.4169225,41.4772132 92.6747324,41.3966476 92.8859965,41.2963867 C93.0972605,41.1961258 93.2583917,41.0842291 93.3693949,40.9606934 C93.4803981,40.8371576 93.5358988,40.7127285 93.5358988,40.5874023 C93.5358988,40.3295886 93.407889,40.1416022 93.1518656,40.0234375 C92.8958422,39.9052728 92.5458294,39.8461914 92.1018168,39.8461914 C91.8260992,39.8461914 91.5468052,39.8399252 91.2639261,39.8273926 C90.9810471,39.81486 90.716971,39.799642 90.4716898,39.7817383 C90.2264086,39.7638345 90.011567,39.7450359 89.8271586,39.7253418 C89.6427501,39.7056477 89.5111596,39.6886394 89.4323832,39.6743164 Z M90.8610941,37.5527344 C91.0222277,37.5527344 91.1779879,37.5160323 91.3283793,37.442627 C91.4787707,37.3692216 91.6112563,37.2680671 91.7258402,37.1391602 C91.8404241,37.0102533 91.9317318,36.8598641 91.999766,36.6879883 C92.0678002,36.5161124 92.1018168,36.3317067 92.1018168,36.1347656 C92.1018168,35.8518866 92.0633243,35.5896008 91.9863383,35.3479004 C91.9093522,35.1062 91.8046169,34.8958342 91.6721293,34.7167969 C91.5396416,34.5377595 91.3856718,34.3972173 91.2102152,34.295166 C91.0347586,34.1931147 90.8485625,34.1420898 90.6516215,34.1420898 C90.4582611,34.1420898 90.2908637,34.1823726 90.1494242,34.2629395 C90.0079847,34.3435063 89.8916122,34.4536126 89.8003031,34.5932617 C89.7089941,34.7329109 89.6418561,34.8976227 89.5988871,35.0874023 C89.5559181,35.2771819 89.534434,35.4812815 89.534434,35.699707 C89.534434,35.9611016 89.5666602,36.2045887 89.6311136,36.4301758 C89.6955671,36.6557628 89.7859796,36.8518058 89.9023539,37.0183105 C90.0187282,37.1848153 90.1583752,37.3155106 90.3212992,37.4104004 C90.4842232,37.5052902 90.664153,37.5527344 90.8610941,37.5527344 Z M99.679141,33.9541016 L100.823184,33.9541016 L100.823184,35.0336914 C100.969995,34.8725578 101.135602,34.7203783 101.32001,34.5771484 C101.504419,34.4339186 101.694195,34.3068039 101.889346,34.1958008 C102.084497,34.0847976 102.28054,33.9970706 102.477481,33.9326172 C102.674422,33.8681637 102.860618,33.8359375 103.036075,33.8359375 C103.20795,33.8359375 103.380719,33.8663734 103.554385,33.9272461 C103.728051,33.9881188 103.889183,34.0731603 104.037784,34.182373 C104.186385,34.2915858 104.314394,34.4204908 104.421817,34.5690918 C104.529239,34.7176928 104.599063,34.8797192 104.631289,35.0551758 C104.72797,34.8868807 104.85956,34.728435 105.026065,34.579834 C105.19257,34.431233 105.37787,34.302328 105.581973,34.1931152 C105.786076,34.0839024 106.000917,33.9970706 106.226504,33.9326172 C106.452091,33.8681637 106.674094,33.8359375 106.89252,33.8359375 C107.110946,33.8359375 107.31594,33.8842769 107.50751,33.980957 C107.69908,34.0776372 107.866478,34.2074373 108.009707,34.3703613 C108.152937,34.5332853 108.265729,34.7248524 108.348086,34.9450684 C108.430444,35.1652843 108.471622,35.3989245 108.471622,35.6459961 L108.471622,39.7226562 L107.322207,39.7226562 L107.322207,35.8125 C107.322207,35.6513664 107.294457,35.4982917 107.238955,35.3532715 C107.183454,35.2082512 107.109155,35.0811366 107.016055,34.9719238 C106.922956,34.862711 106.813745,34.7758792 106.688418,34.7114258 C106.563092,34.6469723 106.430607,34.6147461 106.290957,34.6147461 C106.133405,34.6147461 105.973169,34.6362303 105.810245,34.6791992 C105.647321,34.7221682 105.492456,34.7812496 105.345645,34.8564453 C105.198834,34.931641 105.064558,35.019368 104.942813,35.1196289 C104.821068,35.2198898 104.724389,35.3255203 104.652774,35.4365234 L104.652774,39.7226562 L103.508731,39.7226562 L103.508731,35.8125 C103.508731,35.6513664 103.480981,35.4982917 103.425479,35.3532715 C103.369977,35.2082512 103.293888,35.0811366 103.197207,34.9719238 C103.100527,34.862711 102.989526,34.7758792 102.8642,34.7114258 C102.738873,34.6469723 102.606388,34.6147461 102.466739,34.6147461 C102.319928,34.6147461 102.168644,34.6371254 102.012881,34.6818848 C101.857119,34.7266441 101.704939,34.7866207 101.556338,34.8618164 C101.407737,34.9370121 101.269881,35.0238439 101.142764,35.1223145 C101.015648,35.220785 100.909122,35.3255203 100.823184,35.4365234 L100.823184,39.7226562 L99.679141,39.7226562 L99.679141,33.9541016 Z M113.00418,39.8461914 C112.613879,39.8461914 112.247753,39.7727872 111.905791,39.6259766 C111.56383,39.4791659 111.264842,39.2795423 111.008819,39.0270996 C110.752795,38.7746569 110.550486,38.4792497 110.401885,38.1408691 C110.253284,37.8024885 110.178985,37.4399433 110.178985,37.0532227 C110.178985,36.5913063 110.247018,36.1634134 110.383086,35.7695312 C110.519155,35.3756491 110.710722,35.0354832 110.957793,34.7490234 C111.204865,34.4625637 111.502958,34.2387703 111.852081,34.0776367 C112.201203,33.9165031 112.588813,33.8359375 113.014922,33.8359375 C113.394482,33.8359375 113.741809,33.9021803 114.056915,34.034668 C114.37202,34.1671556 114.642363,34.3452951 114.86795,34.5690918 C115.093537,34.7928885 115.268991,35.0515936 115.394317,35.3452148 C115.519643,35.6388361 115.582305,35.9467757 115.582305,36.269043 L111.280059,36.269043 C111.280059,36.6557637 111.330189,37.0147282 111.43045,37.3459473 C111.530711,37.6771664 111.670358,37.9627267 111.849395,38.2026367 C112.028432,38.4425468 112.243274,38.6305332 112.493926,38.7666016 C112.744579,38.90267 113.018502,38.9707031 113.315704,38.9707031 C113.566356,38.9707031 113.806262,38.9304203 114.03543,38.8498535 C114.264598,38.7692867 114.472278,38.6636563 114.658477,38.532959 C114.844676,38.4022617 115.003122,38.2518726 115.133819,38.0817871 C115.264516,37.9117016 115.356719,37.7371428 115.41043,37.5581055 L115.738067,37.703125 C115.65571,38.000327 115.522329,38.2787259 115.33792,38.5383301 C115.153512,38.7979342 114.93867,39.0244131 114.693389,39.2177734 C114.448108,39.4111338 114.179556,39.5642084 113.887725,39.677002 C113.595894,39.7897955 113.301382,39.8461914 113.00418,39.8461914 Z M114.148223,35.8071289 C114.148223,35.5887033 114.109731,35.385499 114.032745,35.1975098 C113.955759,35.0095205 113.850128,34.846599 113.71585,34.7087402 C113.581572,34.5708815 113.424022,34.4625655 113.243194,34.3837891 C113.062366,34.3050126 112.868113,34.265625 112.66043,34.265625 C112.488554,34.265625 112.322947,34.3050126 112.163604,34.3837891 C112.004261,34.4625655 111.862823,34.5699863 111.739288,34.7060547 C111.615752,34.8421231 111.513702,35.0041495 111.433135,35.1921387 C111.352568,35.3801279 111.303334,35.5833322 111.28543,35.8017578 L114.148223,35.8071289 Z M117.472286,33.9541016 L118.616329,33.9541016 L118.616329,35.0336914 C118.763139,34.8725578 118.928746,34.7203783 119.113155,34.5771484 C119.297563,34.4339186 119.48734,34.3068039 119.682491,34.1958008 C119.877641,34.0847976 120.073684,33.9970706 120.270625,33.9326172 C120.467567,33.8681637 120.653763,33.8359375 120.829219,33.8359375 C121.001095,33.8359375 121.173864,33.8663734 121.34753,33.9272461 C121.521196,33.9881188 121.682327,34.0731603 121.830928,34.182373 C121.979529,34.2915858 122.107539,34.4204908 122.214961,34.5690918 C122.322384,34.7176928 122.392207,34.8797192 122.424434,35.0551758 C122.521114,34.8868807 122.652705,34.728435 122.819209,34.579834 C122.985714,34.431233 123.171015,34.302328 123.375118,34.1931152 C123.57922,34.0839024 123.794062,33.9970706 124.019649,33.9326172 C124.245236,33.8681637 124.467239,33.8359375 124.685665,33.8359375 C124.90409,33.8359375 125.109085,33.8842769 125.300655,33.980957 C125.492225,34.0776372 125.659622,34.2074373 125.802852,34.3703613 C125.946082,34.5332853 126.058874,34.7248524 126.141231,34.9450684 C126.223588,35.1652843 126.264766,35.3989245 126.264766,35.6459961 L126.264766,39.7226562 L125.115352,39.7226562 L125.115352,35.8125 C125.115352,35.6513664 125.087602,35.4982917 125.0321,35.3532715 C124.976599,35.2082512 124.902299,35.0811366 124.8092,34.9719238 C124.7161,34.862711 124.606889,34.7758792 124.481563,34.7114258 C124.356237,34.6469723 124.223751,34.6147461 124.084102,34.6147461 C123.926549,34.6147461 123.766313,34.6362303 123.603389,34.6791992 C123.440465,34.7221682 123.2856,34.7812496 123.13879,34.8564453 C122.991979,34.931641 122.857703,35.019368 122.735958,35.1196289 C122.614212,35.2198898 122.517533,35.3255203 122.445918,35.4365234 L122.445918,39.7226562 L121.301875,39.7226562 L121.301875,35.8125 C121.301875,35.6513664 121.274125,35.4982917 121.218624,35.3532715 C121.163122,35.2082512 121.087032,35.0811366 120.990352,34.9719238 C120.893672,34.862711 120.78267,34.7758792 120.657344,34.7114258 C120.532018,34.6469723 120.399532,34.6147461 120.259883,34.6147461 C120.113073,34.6147461 119.961788,34.6371254 119.806026,34.6818848 C119.650263,34.7266441 119.498084,34.7866207 119.349483,34.8618164 C119.200882,34.9370121 119.063025,35.0238439 118.935909,35.1223145 C118.808792,35.220785 118.702267,35.3255203 118.616329,35.4365234 L118.616329,39.7226562 L117.472286,39.7226562 L117.472286,33.9541016 Z M131.049766,39.8461914 C130.609334,39.8461914 130.20203,39.7692065 129.827842,39.6152344 C129.453654,39.4612623 129.131392,39.2517917 128.861045,38.9868164 C128.590699,38.7218411 128.379438,38.411216 128.227256,38.0549316 C128.075075,37.6986473 127.998985,37.3181986 127.998985,36.9135742 C127.998985,36.4874653 128.075075,36.0873228 128.227256,35.7131348 C128.379438,35.3389467 128.590699,35.0131036 128.861045,34.7355957 C129.131392,34.4580878 129.453654,34.2387703 129.827842,34.0776367 C130.20203,33.9165031 130.609334,33.8359375 131.049766,33.8359375 C131.490198,33.8359375 131.895712,33.9093417 132.266319,34.0561523 C132.636926,34.202963 132.958293,34.404377 133.23043,34.6604004 C133.502567,34.9164238 133.714723,35.217202 133.866905,35.5627441 C134.019087,35.9082862 134.095176,36.2779928 134.095176,36.671875 C134.095176,37.1087261 134.019087,37.5196107 133.866905,37.904541 C133.714723,38.2894713 133.502567,38.6260565 133.23043,38.9143066 C132.958293,39.2025568 132.636926,39.4299308 132.266319,39.5964355 C131.895712,39.7629403 131.490198,39.8461914 131.049766,39.8461914 Z M131.26461,39.421875 C131.490197,39.421875 131.696982,39.3636887 131.884971,39.2473145 C132.07296,39.1309402 132.235882,38.97518 132.373741,38.7800293 C132.511599,38.5848786 132.618125,38.3566094 132.693321,38.0952148 C132.768516,37.8338203 132.806114,37.5581069 132.806114,37.2680664 C132.806114,36.849119 132.770307,36.4579282 132.698692,36.0944824 C132.627077,35.7310366 132.510704,35.4132501 132.349571,35.1411133 C132.188437,34.8689765 131.978967,34.6550301 131.721153,34.4992676 C131.463339,34.3435051 131.146448,34.265625 130.770469,34.265625 C130.577109,34.265625 130.390913,34.3211257 130.211875,34.4321289 C130.032838,34.5431321 129.874392,34.6953115 129.736534,34.8886719 C129.598675,35.0820322 129.488569,35.3076159 129.406211,35.5654297 C129.323854,35.8232435 129.282676,36.0971665 129.282676,36.387207 C129.282676,36.8061544 129.327435,37.2000307 129.416954,37.5688477 C129.506472,37.9376646 129.635377,38.2590318 129.803672,38.532959 C129.971967,38.8068861 130.179648,39.0235181 130.426719,39.1828613 C130.673791,39.3422046 130.953085,39.421875 131.26461,39.421875 Z M135.856251,33.9541016 L136.994922,33.9541016 L136.994922,35.0444336 C137.105926,34.8833 137.225879,34.7293302 137.354786,34.5825195 C137.483693,34.4357089 137.617969,34.3068039 137.757618,34.1958008 C137.897267,34.0847976 138.04139,33.9970706 138.189991,33.9326172 C138.338592,33.8681637 138.489876,33.8359375 138.643848,33.8359375 C138.769174,33.8359375 138.885547,33.8547361 138.992969,33.892334 C139.100392,33.9299318 139.194385,33.9800615 139.274952,34.0427246 C139.355519,34.1053877 139.419076,34.1787919 139.465626,34.2629395 C139.512175,34.347087 139.53545,34.4357092 139.53545,34.5288086 C139.53545,34.7150074 139.477263,34.8555497 139.360889,34.9504395 C139.244515,35.0453293 139.082489,35.0927734 138.874805,35.0927734 C138.745898,35.0927734 138.642953,35.0793458 138.565967,35.0524902 C138.488981,35.0256346 138.419158,34.9951987 138.356495,34.9611816 C138.293832,34.9271645 138.230274,34.8967286 138.165821,34.869873 C138.101367,34.8430174 138.020802,34.8295898 137.924122,34.8295898 C137.848926,34.8295898 137.772836,34.8519692 137.69585,34.8967285 C137.618864,34.9414879 137.541879,35.00415 137.464893,35.0847168 C137.387907,35.1652836 137.310027,35.260172 137.231251,35.3693848 C137.152474,35.4785976 137.073699,35.5976556 136.994922,35.7265625 L136.994922,39.7226562 L135.856251,39.7226562 L135.856251,33.9541016 Z M141.543594,31 C141.633113,31 141.718154,31.0152179 141.798721,31.0456543 C141.879288,31.0760906 141.949112,31.1172686 142.008194,31.1691895 C142.067276,31.2211103 142.11472,31.2819821 142.150528,31.3518066 C142.186335,31.4216312 142.204239,31.4959306 142.204239,31.574707 C142.204239,31.6534835 142.186335,31.7277829 142.150528,31.7976074 C142.11472,31.867432 142.067276,31.9283038 142.008194,31.9802246 C141.949112,32.0321454 141.879288,32.0733234 141.798721,32.1037598 C141.718154,32.1341961 141.633113,32.1494141 141.543594,32.1494141 C141.454076,32.1494141 141.369929,32.1341961 141.291153,32.1037598 C141.212376,32.0733234 141.143448,32.0321454 141.084366,31.9802246 C141.025283,31.9283038 140.977839,31.867432 140.942032,31.7976074 C140.906224,31.7277829 140.888321,31.6534835 140.888321,31.574707 C140.888321,31.4959306 140.906224,31.4216312 140.942032,31.3518066 C140.977839,31.2819821 141.025283,31.2211103 141.084366,31.1691895 C141.143448,31.1172686 141.212376,31.0760906 141.291153,31.0456543 C141.369929,31.0152179 141.454076,31 141.543594,31 Z M140.985001,34.1635742 L141.790665,33.8359375 L142.123672,33.8359375 L142.123672,39.7226562 L140.985001,39.7226562 L140.985001,34.1635742 Z M148.428692,39.7226562 L147.279278,39.7226562 L147.279278,38.9331055 C147.14321,39.0369471 147.009829,39.1425776 146.879131,39.25 C146.748434,39.3574224 146.606997,39.4558915 146.454815,39.5454102 C146.302633,39.6349288 146.134341,39.7074379 145.949932,39.7629395 C145.765524,39.818441 145.551577,39.8461914 145.308087,39.8461914 C145.082499,39.8461914 144.8784,39.8094893 144.695782,39.736084 C144.513164,39.6626787 144.357404,39.5615241 144.228497,39.4326172 C144.09959,39.3037103 144.001121,39.1515308 143.933087,38.9760742 C143.865052,38.8006176 143.831036,38.6108409 143.831036,38.4067383 C143.831036,38.1596667 143.88027,37.9367686 143.978741,37.7380371 C144.077211,37.5393056 144.211487,37.3611662 144.381573,37.2036133 C144.551658,37.0460604 144.750387,36.9064134 144.977764,36.784668 C145.205142,36.6629226 145.445943,36.5537114 145.700176,36.4570312 C145.954409,36.3603511 146.216695,36.2744144 146.487042,36.1992188 C146.757388,36.1240231 147.021464,36.0541995 147.279278,35.9897461 L147.279278,35.6298828 C147.279278,35.3684883 147.253318,35.1473805 147.201397,34.9665527 C147.149476,34.785725 147.075177,34.6398118 146.978497,34.5288086 C146.881816,34.4178054 146.764549,34.338135 146.62669,34.2897949 C146.488831,34.2414548 146.333966,34.2172852 146.16209,34.2172852 C145.96873,34.2172852 145.81118,34.24235 145.689434,34.2924805 C145.567689,34.3426109 145.471905,34.4088538 145.402081,34.4912109 C145.332256,34.5735681 145.284812,34.6675613 145.259747,34.7731934 C145.234681,34.8788254 145.222149,34.985351 145.222149,35.0927734 C145.222149,35.1930344 145.214092,35.2897131 145.197979,35.3828125 C145.181866,35.4759119 145.152325,35.5573727 145.109356,35.6271973 C145.066387,35.6970218 145.008201,35.7534178 144.934795,35.7963867 C144.86139,35.8393557 144.767397,35.8608398 144.652813,35.8608398 C144.563294,35.8608398 144.481834,35.8438316 144.408428,35.8098145 C144.335023,35.7757974 144.271466,35.7283532 144.217754,35.6674805 C144.164043,35.6066078 144.122865,35.5349939 144.094219,35.4526367 C144.065573,35.3702795 144.051251,35.2807622 144.051251,35.184082 C144.051251,34.9943024 144.113913,34.8170581 144.239239,34.6523438 C144.364565,34.4876294 144.532858,34.3452968 144.744122,34.2253418 C144.955386,34.1053868 145.202454,34.0104984 145.485333,33.9406738 C145.768212,33.8708493 146.065409,33.8359375 146.376934,33.8359375 C146.756493,33.8359375 147.076965,33.8726396 147.33836,33.9460449 C147.599754,34.0194502 147.811015,34.1223952 147.972149,34.2548828 C148.133283,34.3873705 148.249655,34.5485017 148.32127,34.7382812 C148.392885,34.9280608 148.428692,35.1375314 148.428692,35.3666992 L148.428692,39.7226562 Z M147.279278,36.3603516 C147.114564,36.4140628 146.943585,36.4749346 146.766338,36.5429688 C146.589091,36.6110029 146.415428,36.6870927 146.245342,36.7712402 C146.075257,36.8553878 145.913231,36.9466955 145.759258,37.045166 C145.605286,37.1436366 145.470115,37.2483718 145.353741,37.359375 C145.237367,37.4703782 145.145164,37.588541 145.077129,37.7138672 C145.009095,37.8391933 144.975079,37.9698886 144.975079,38.105957 C144.975079,38.2456062 145.001039,38.378987 145.05296,38.5061035 C145.10488,38.63322 145.173809,38.7442215 145.259747,38.8391113 C145.345685,38.9340011 145.445049,39.0091957 145.557842,39.0646973 C145.670636,39.1201988 145.787904,39.1479492 145.909649,39.1479492 C146.038556,39.1479492 146.161195,39.1309409 146.277569,39.0969238 C146.393943,39.0629067 146.506735,39.0172529 146.615948,38.9599609 C146.725161,38.902669 146.834372,38.835531 146.943585,38.7585449 C147.052797,38.6815589 147.164694,38.6000981 147.279278,38.5141602 L147.279278,36.3603516 Z M151.817208,39.7226562 L150.673165,39.7226562 L150.673165,31.3276367 L151.489571,31 L151.817208,31 L151.817208,39.7226562 Z M161.145508,33.9541016 L161.145508,34.4375 L159.604005,34.4375 L159.604005,39.7226562 L158.45459,39.7226562 L158.45459,34.4375 L157.246094,34.4375 L157.246094,33.9541016 L158.45459,33.9541016 L158.45459,33.2773438 C158.45459,32.962238 158.510986,32.6659356 158.62378,32.3884277 C158.736573,32.1109198 158.889648,31.869223 159.083008,31.6633301 C159.276369,31.4574371 159.503743,31.2954107 159.765137,31.1772461 C160.026532,31.0590814 160.305826,31 160.603028,31 C160.857261,31 161.08374,31.02596 161.282471,31.0778809 C161.481203,31.1298017 161.6486,31.1996252 161.784669,31.2873535 C161.920737,31.3750818 162.024577,31.4789219 162.096192,31.598877 C162.167807,31.718832 162.203614,31.8468418 162.203614,31.9829102 C162.203614,32.0688481 162.187501,32.1449378 162.155274,32.2111816 C162.123047,32.2774255 162.080079,32.3338214 162.026368,32.3803711 C161.972657,32.4269208 161.909995,32.4627277 161.83838,32.487793 C161.766765,32.5128582 161.69157,32.5253906 161.612794,32.5253906 C161.473144,32.5253906 161.366619,32.4985354 161.293214,32.4448242 C161.219808,32.391113 161.163412,32.3230798 161.124024,32.2407227 C161.084636,32.1583655 161.053305,32.0697433 161.03003,31.9748535 C161.006755,31.8799637 160.973634,31.7913416 160.930665,31.7089844 C160.887696,31.6266272 160.825929,31.558594 160.745362,31.5048828 C160.664795,31.4511716 160.549318,31.4243164 160.398926,31.4243164 C160.284343,31.4243164 160.177817,31.4574378 160.079346,31.5236816 C159.980876,31.5899255 159.89673,31.6767573 159.826905,31.7841797 C159.75708,31.8916021 159.702475,32.015136 159.663087,32.1547852 C159.623698,32.2944343 159.604005,32.437662 159.604005,32.5844727 L159.604005,33.9541016 L161.145508,33.9541016 Z M165.500821,39.8461914 C165.060389,39.8461914 164.653085,39.7692065 164.278897,39.6152344 C163.904709,39.4612623 163.582447,39.2517917 163.3121,38.9868164 C163.041754,38.7218411 162.830493,38.411216 162.678311,38.0549316 C162.526129,37.6986473 162.45004,37.3181986 162.45004,36.9135742 C162.45004,36.4874653 162.526129,36.0873228 162.678311,35.7131348 C162.830493,35.3389467 163.041754,35.0131036 163.3121,34.7355957 C163.582447,34.4580878 163.904709,34.2387703 164.278897,34.0776367 C164.653085,33.9165031 165.060389,33.8359375 165.500821,33.8359375 C165.941253,33.8359375 166.346766,33.9093417 166.717374,34.0561523 C167.087981,34.202963 167.409348,34.404377 167.681485,34.6604004 C167.953622,34.9164238 168.165778,35.217202 168.31796,35.5627441 C168.470141,35.9082862 168.546231,36.2779928 168.546231,36.671875 C168.546231,37.1087261 168.470141,37.5196107 168.31796,37.904541 C168.165778,38.2894713 167.953622,38.6260565 167.681485,38.9143066 C167.409348,39.2025568 167.087981,39.4299308 166.717374,39.5964355 C166.346766,39.7629403 165.941253,39.8461914 165.500821,39.8461914 Z M165.715665,39.421875 C165.941252,39.421875 166.148037,39.3636887 166.336026,39.2473145 C166.524015,39.1309402 166.686937,38.97518 166.824796,38.7800293 C166.962654,38.5848786 167.06918,38.3566094 167.144376,38.0952148 C167.219571,37.8338203 167.257169,37.5581069 167.257169,37.2680664 C167.257169,36.849119 167.221362,36.4579282 167.149747,36.0944824 C167.078132,35.7310366 166.961759,35.4132501 166.800626,35.1411133 C166.639492,34.8689765 166.430022,34.6550301 166.172208,34.4992676 C165.914394,34.3435051 165.597503,34.265625 165.221524,34.265625 C165.028164,34.265625 164.841968,34.3211257 164.66293,34.4321289 C164.483893,34.5431321 164.325447,34.6953115 164.187589,34.8886719 C164.04973,35.0820322 163.939623,35.3076159 163.857266,35.5654297 C163.774909,35.8232435 163.733731,36.0971665 163.733731,36.387207 C163.733731,36.8061544 163.77849,37.2000307 163.868008,37.5688477 C163.957527,37.9376646 164.086432,38.2590318 164.254727,38.532959 C164.423022,38.8068861 164.630703,39.0235181 164.877774,39.1828613 C165.124846,39.3422046 165.40414,39.421875 165.715665,39.421875 Z M171.451348,33.9541016 L171.451348,38.0576172 C171.451348,38.2008471 171.48447,38.3360182 171.550714,38.4631348 C171.616957,38.5902513 171.70737,38.7003576 171.821954,38.793457 C171.936538,38.8865565 172.070814,38.9608558 172.224786,39.0163574 C172.378758,39.071859 172.54347,39.0996094 172.718926,39.0996094 C172.83351,39.0996094 172.955254,39.0754397 173.084161,39.0270996 C173.213068,38.9787595 173.339287,38.9116215 173.462823,38.8256836 C173.586359,38.7397457 173.702731,38.6403814 173.811944,38.5275879 C173.921157,38.4147944 174.011569,38.293946 174.083184,38.1650391 L174.083184,33.9541016 L175.227227,33.9541016 L175.227227,39.7226562 L174.083184,39.7226562 L174.083184,38.6430664 C173.982923,38.8077808 173.856704,38.9635409 173.704522,39.1103516 C173.55234,39.2571622 173.387629,39.385172 173.210382,39.4943848 C173.033135,39.6035976 172.850519,39.6895342 172.66253,39.7521973 C172.474541,39.8148603 172.296401,39.8461914 172.128106,39.8461914 C171.877454,39.8461914 171.641128,39.7987472 171.419122,39.7038574 C171.197115,39.6089676 171.003758,39.4809578 170.839044,39.3198242 C170.674329,39.1586906 170.544529,38.969809 170.449639,38.7531738 C170.35475,38.5365386 170.307305,38.3046887 170.307305,38.0576172 L170.307305,33.9541016 L171.451348,33.9541016 Z M177.230001,33.9541016 L178.374044,33.9541016 L178.374044,35.0068359 C178.721376,34.6165345 179.083026,34.3238128 179.459005,34.1286621 C179.834983,33.9335114 180.218117,33.8359375 180.608419,33.8359375 C180.808941,33.8359375 180.997822,33.8815913 181.175069,33.9729004 C181.352316,34.0642094 181.506286,34.1886385 181.636983,34.3461914 C181.76768,34.5037443 181.871521,34.6890452 181.948507,34.9020996 C182.025493,35.1151541 182.063985,35.3416329 182.063985,35.581543 L182.063985,39.7226562 L180.914571,39.7226562 L180.914571,35.7749023 C180.914571,35.3953432 180.828634,35.1070973 180.656759,34.9101562 C180.484883,34.7132152 180.26467,34.6147461 179.996114,34.6147461 C179.874369,34.6147461 179.745464,34.6344399 179.609395,34.6738281 C179.473327,34.7132163 179.33547,34.7696123 179.195821,34.8430176 C179.056172,34.9164229 178.916525,35.0041499 178.776876,35.1062012 C178.637227,35.2082525 178.502951,35.3219395 178.374044,35.4472656 L178.374044,39.7226562 L177.230001,39.7226562 L177.230001,33.9541016 Z M188.121934,39.1586914 C187.989447,39.2661138 187.846219,39.3618974 187.692247,39.4460449 C187.538275,39.5301925 187.378039,39.6018063 187.211534,39.6608887 C187.045029,39.719971 186.876737,39.7656248 186.706651,39.7978516 C186.536566,39.8300783 186.370959,39.8461914 186.209825,39.8461914 C185.869654,39.8461914 185.551867,39.7674162 185.256456,39.6098633 C184.961044,39.4523104 184.703234,39.2392592 184.483018,38.9707031 C184.262802,38.7021471 184.089139,38.3906268 183.962022,38.0361328 C183.834906,37.6816389 183.771348,37.3074564 183.771348,36.9135742 C183.771348,36.6521797 183.808051,36.3943698 183.881456,36.1401367 C183.954861,35.8859037 184.056911,35.645102 184.187608,35.4177246 C184.318305,35.1903472 184.475856,34.9799814 184.660264,34.7866211 C184.844673,34.5932608 185.049668,34.4258633 185.275255,34.2844238 C185.500842,34.1429843 185.741643,34.032878 185.997667,33.9541016 C186.25369,33.8753251 186.521347,33.8359375 186.800645,33.8359375 C187.079944,33.8359375 187.325221,33.885172 187.536485,33.9836426 C187.747749,34.0821131 187.942897,34.2119133 188.121934,34.3730469 L188.121934,31.3276367 L188.922227,31 L189.260606,31 L189.260606,39.8461914 L188.121934,39.8461914 L188.121934,39.1586914 Z M188.121934,35.7856445 C188.121934,35.5600575 188.079861,35.3532724 187.995714,35.1652832 C187.911566,34.977294 187.80146,34.817058 187.665391,34.6845703 C187.529323,34.5520827 187.375353,34.4491377 187.203477,34.3757324 C187.031601,34.3023271 186.857938,34.265625 186.682481,34.265625 C186.453313,34.265625 186.239367,34.3229161 186.040636,34.4375 C185.841904,34.5520839 185.66824,34.7114248 185.519639,34.9155273 C185.371038,35.1196299 185.253771,35.3640122 185.167833,35.6486816 C185.081895,35.933351 185.038927,36.2457665 185.038927,36.5859375 C185.038927,36.9511737 185.086371,37.2940251 185.181261,37.614502 C185.27615,37.9349788 185.40595,38.2142729 185.570665,38.4523926 C185.735379,38.6905123 185.927841,38.8784987 186.148057,39.0163574 C186.368273,39.1542162 186.603704,39.2231445 186.854356,39.2231445 C186.976102,39.2231445 187.09695,39.2070314 187.216905,39.1748047 C187.33686,39.142578 187.451442,39.0996096 187.560655,39.0458984 C187.669868,38.9921872 187.772813,38.9295251 187.869493,38.8579102 C187.966173,38.7862952 188.050319,38.7111007 188.121934,38.6323242 L188.121934,35.7856445 Z M195.511915,39.7226562 L194.362501,39.7226562 L194.362501,38.9331055 C194.226432,39.0369471 194.093052,39.1425776 193.962354,39.25 C193.831657,39.3574224 193.69022,39.4558915 193.538038,39.5454102 C193.385856,39.6349288 193.217564,39.7074379 193.033155,39.7629395 C192.848747,39.818441 192.6348,39.8461914 192.391309,39.8461914 C192.165722,39.8461914 191.961623,39.8094893 191.779005,39.736084 C191.596387,39.6626787 191.440626,39.5615241 191.31172,39.4326172 C191.182813,39.3037103 191.084344,39.1515308 191.016309,38.9760742 C190.948275,38.8006176 190.914259,38.6108409 190.914259,38.4067383 C190.914259,38.1596667 190.963493,37.9367686 191.061964,37.7380371 C191.160434,37.5393056 191.29471,37.3611662 191.464796,37.2036133 C191.634881,37.0460604 191.83361,36.9064134 192.060987,36.784668 C192.288365,36.6629226 192.529166,36.5537114 192.783399,36.4570312 C193.037632,36.3603511 193.299918,36.2744144 193.570264,36.1992188 C193.840611,36.1240231 194.104687,36.0541995 194.362501,35.9897461 L194.362501,35.6298828 C194.362501,35.3684883 194.336541,35.1473805 194.28462,34.9665527 C194.232699,34.785725 194.1584,34.6398118 194.06172,34.5288086 C193.965039,34.4178054 193.847772,34.338135 193.709913,34.2897949 C193.572054,34.2414548 193.417189,34.2172852 193.245313,34.2172852 C193.051953,34.2172852 192.894402,34.24235 192.772657,34.2924805 C192.650912,34.3426109 192.555128,34.4088538 192.485304,34.4912109 C192.415479,34.5735681 192.368035,34.6675613 192.34297,34.7731934 C192.317904,34.8788254 192.305372,34.985351 192.305372,35.0927734 C192.305372,35.1930344 192.297315,35.2897131 192.281202,35.3828125 C192.265089,35.4759119 192.235548,35.5573727 192.192579,35.6271973 C192.14961,35.6970218 192.091424,35.7534178 192.018018,35.7963867 C191.944613,35.8393557 191.85062,35.8608398 191.736036,35.8608398 C191.646517,35.8608398 191.565056,35.8438316 191.491651,35.8098145 C191.418246,35.7757974 191.354689,35.7283532 191.300977,35.6674805 C191.247266,35.6066078 191.206088,35.5349939 191.177442,35.4526367 C191.148796,35.3702795 191.134473,35.2807622 191.134473,35.184082 C191.134473,34.9943024 191.197136,34.8170581 191.322462,34.6523438 C191.447788,34.4876294 191.61608,34.3452968 191.827345,34.2253418 C192.038609,34.1053868 192.285676,34.0104984 192.568555,33.9406738 C192.851434,33.8708493 193.148632,33.8359375 193.460157,33.8359375 C193.839716,33.8359375 194.160188,33.8726396 194.421583,33.9460449 C194.682977,34.0194502 194.894238,34.1223952 195.055372,34.2548828 C195.216505,34.3873705 195.332878,34.5485017 195.404493,34.7382812 C195.476108,34.9280608 195.511915,35.1375314 195.511915,35.3666992 L195.511915,39.7226562 Z M194.362501,36.3603516 C194.197786,36.4140628 194.026808,36.4749346 193.849561,36.5429688 C193.672314,36.6110029 193.498651,36.6870927 193.328565,36.7712402 C193.15848,36.8553878 192.996453,36.9466955 192.842481,37.045166 C192.688509,37.1436366 192.553338,37.2483718 192.436964,37.359375 C192.320589,37.4703782 192.228387,37.588541 192.160352,37.7138672 C192.092318,37.8391933 192.058302,37.9698886 192.058302,38.105957 C192.058302,38.2456062 192.084262,38.378987 192.136182,38.5061035 C192.188103,38.63322 192.257032,38.7442215 192.34297,38.8391113 C192.428907,38.9340011 192.528272,39.0091957 192.641065,39.0646973 C192.753859,39.1201988 192.871126,39.1479492 192.992872,39.1479492 C193.121779,39.1479492 193.244418,39.1309409 193.360792,39.0969238 C193.477166,39.0629067 193.589958,39.0172529 193.699171,38.9599609 C193.808383,38.902669 193.917595,38.835531 194.026807,38.7585449 C194.13602,38.6815589 194.247917,38.6000981 194.362501,38.5141602 L194.362501,36.3603516 Z M200.774942,38.9868164 C200.62097,39.2517917 200.416871,39.4612623 200.162638,39.6152344 C199.908404,39.7692065 199.595094,39.8461914 199.222696,39.8461914 C199.029336,39.8461914 198.861938,39.8139652 198.720499,39.7495117 C198.579059,39.6850583 198.461792,39.5937506 198.368692,39.4755859 C198.275593,39.3574213 198.206664,39.2159839 198.161905,39.0512695 C198.117146,38.8865552 198.094766,38.7039398 198.094766,38.503418 L198.094766,34.4375 L197.095743,34.4375 L197.095743,34.152832 C197.41801,34.152832 197.682982,34.0946458 197.890665,33.9782715 C198.098348,33.8618972 198.268431,33.7043467 198.400919,33.5056152 C198.533406,33.3068838 198.637247,33.0768242 198.712442,32.8154297 C198.787638,32.5540352 198.853881,32.2765314 198.911173,31.9829102 L199.238809,31.9829102 L199.238809,33.9541016 L200.533243,33.9541016 L200.533243,34.4375 L199.238809,34.4375 L199.238809,38.503418 C199.238809,38.5893559 199.254923,38.6699215 199.287149,38.7451172 C199.319376,38.8203129 199.363239,38.8856605 199.418741,38.9411621 C199.474243,38.9966637 199.540485,39.0405272 199.617472,39.0727539 C199.694458,39.1049806 199.775918,39.1210938 199.861856,39.1210938 C199.990763,39.1210938 200.108031,39.0897627 200.213663,39.0270996 C200.319295,38.9644365 200.411498,38.8865565 200.490274,38.793457 L200.774942,38.9868164 Z M202.740118,31 C202.829637,31 202.914678,31.0152179 202.995245,31.0456543 C203.075812,31.0760906 203.145635,31.1172686 203.204718,31.1691895 C203.2638,31.2211103 203.311244,31.2819821 203.347052,31.3518066 C203.382859,31.4216312 203.400763,31.4959306 203.400763,31.574707 C203.400763,31.6534835 203.382859,31.7277829 203.347052,31.7976074 C203.311244,31.867432 203.2638,31.9283038 203.204718,31.9802246 C203.145635,32.0321454 203.075812,32.0733234 202.995245,32.1037598 C202.914678,32.1341961 202.829637,32.1494141 202.740118,32.1494141 C202.650599,32.1494141 202.566453,32.1341961 202.487677,32.1037598 C202.4089,32.0733234 202.339972,32.0321454 202.28089,31.9802246 C202.221807,31.9283038 202.174363,31.867432 202.138556,31.7976074 C202.102748,31.7277829 202.084845,31.6534835 202.084845,31.574707 C202.084845,31.4959306 202.102748,31.4216312 202.138556,31.3518066 C202.174363,31.2819821 202.221807,31.2211103 202.28089,31.1691895 C202.339972,31.1172686 202.4089,31.0760906 202.487677,31.0456543 C202.566453,31.0152179 202.650599,31 202.740118,31 Z M202.181524,34.1635742 L202.987188,33.8359375 L203.320196,33.8359375 L203.320196,39.7226562 L202.181524,39.7226562 L202.181524,34.1635742 Z M208.185763,39.8461914 C207.745331,39.8461914 207.338027,39.7692065 206.963839,39.6152344 C206.589651,39.4612623 206.267388,39.2517917 205.997042,38.9868164 C205.726695,38.7218411 205.515435,38.411216 205.363253,38.0549316 C205.211071,37.6986473 205.134981,37.3181986 205.134981,36.9135742 C205.134981,36.4874653 205.211071,36.0873228 205.363253,35.7131348 C205.515435,35.3389467 205.726695,35.0131036 205.997042,34.7355957 C206.267388,34.4580878 206.589651,34.2387703 206.963839,34.0776367 C207.338027,33.9165031 207.745331,33.8359375 208.185763,33.8359375 C208.626194,33.8359375 209.031708,33.9093417 209.402315,34.0561523 C209.772923,34.202963 210.09429,34.404377 210.366427,34.6604004 C210.638563,34.9164238 210.85072,35.217202 211.002901,35.5627441 C211.155083,35.9082862 211.231173,36.2779928 211.231173,36.671875 C211.231173,37.1087261 211.155083,37.5196107 211.002901,37.904541 C210.85072,38.2894713 210.638563,38.6260565 210.366427,38.9143066 C210.09429,39.2025568 209.772923,39.4299308 209.402315,39.5964355 C209.031708,39.7629403 208.626194,39.8461914 208.185763,39.8461914 Z M208.400606,39.421875 C208.626193,39.421875 208.832978,39.3636887 209.020968,39.2473145 C209.208957,39.1309402 209.371878,38.97518 209.509737,38.7800293 C209.647596,38.5848786 209.754122,38.3566094 209.829317,38.0952148 C209.904513,37.8338203 209.94211,37.5581069 209.94211,37.2680664 C209.94211,36.849119 209.906303,36.4579282 209.834688,36.0944824 C209.763073,35.7310366 209.646701,35.4132501 209.485567,35.1411133 C209.324434,34.8689765 209.114963,34.6550301 208.857149,34.4992676 C208.599336,34.3435051 208.282444,34.265625 207.906466,34.265625 C207.713105,34.265625 207.526909,34.3211257 207.347872,34.4321289 C207.168835,34.5431321 207.010389,34.6953115 206.87253,34.8886719 C206.734671,35.0820322 206.624565,35.3076159 206.542208,35.5654297 C206.459851,35.8232435 206.418673,36.0971665 206.418673,36.387207 C206.418673,36.8061544 206.463431,37.2000307 206.55295,37.5688477 C206.642469,37.9376646 206.771374,38.2590318 206.939669,38.532959 C207.107964,38.8068861 207.315644,39.0235181 207.562716,39.1828613 C207.809787,39.3422046 208.089081,39.421875 208.400606,39.421875 Z M212.992247,33.9541016 L214.13629,33.9541016 L214.13629,35.0068359 C214.483622,34.6165345 214.845272,34.3238128 215.221251,34.1286621 C215.597229,33.9335114 215.980364,33.8359375 216.370665,33.8359375 C216.571187,33.8359375 216.760068,33.8815913 216.937315,33.9729004 C217.114562,34.0642094 217.268532,34.1886385 217.399229,34.3461914 C217.529927,34.5037443 217.633767,34.6890452 217.710753,34.9020996 C217.787739,35.1151541 217.826231,35.3416329 217.826231,35.581543 L217.826231,39.7226562 L216.676817,39.7226562 L216.676817,35.7749023 C216.676817,35.3953432 216.590881,35.1070973 216.419005,34.9101562 C216.247129,34.7132152 216.026916,34.6147461 215.75836,34.6147461 C215.636615,34.6147461 215.50771,34.6344399 215.371642,34.6738281 C215.235573,34.7132163 215.097716,34.7696123 214.958067,34.8430176 C214.818418,34.9164229 214.678771,35.0041499 214.539122,35.1062012 C214.399473,35.2082525 214.265197,35.3219395 214.13629,35.4472656 L214.13629,39.7226562 L212.992247,39.7226562 L212.992247,33.9541016 Z" id="Chau-ting-chang-memo" fill="#171717"></path>
        </g>
    </g>
</svg>